<svg width="866" height="683" viewBox="0 0 866 683" fill="none" xmlns="http://www.w3.org/2000/svg">
<rect width="866" height="683" fill="#1E1E1E"/>
<path d="M862.17 606.46H3.60001V606.89H862.17V606.46Z" fill="#EBEBEB"/>
<path d="M776.14 634.09H719.27V634.52H776.14V634.09Z" fill="#EBEBEB"/>
<path d="M572.35 638.76H557.43V639.19H572.35V638.76Z" fill="#EBEBEB"/>
<path d="M717.55 618.15H684.6V618.58H717.55V618.15Z" fill="#EBEBEB"/>
<path d="M167.84 621.04H93.68V621.47H167.84V621.04Z" fill="#EBEBEB"/>
<path d="M194.01 621.04H183.14V621.47H194.01V621.04Z" fill="#EBEBEB"/>
<path d="M390.21 628.28H229.35V628.71H390.21V628.28Z" fill="#EBEBEB"/>
<path d="M410.56 529.87H79C76.4026 529.867 73.9125 528.834 72.0768 526.996C70.2411 525.159 69.21 522.667 69.21 520.07V54C69.2258 51.4139 70.2643 48.9392 72.0985 47.1162C73.9328 45.2932 76.4139 44.27 79 44.27H410.56C413.159 44.27 415.652 45.3025 417.49 47.1404C419.328 48.9782 420.36 51.4709 420.36 54.07V54.07V520.07C420.36 522.669 419.328 525.162 417.49 527C415.652 528.838 413.159 529.87 410.56 529.87V529.87ZM79 44.61C77.7687 44.6113 76.5497 44.8553 75.4127 45.328C74.2757 45.8008 73.2431 46.4929 72.3738 47.365C71.5045 48.2371 70.8156 49.2719 70.3465 50.4104C69.8775 51.5489 69.6374 52.7687 69.64 54V520.07C69.64 522.553 70.6258 524.935 72.3809 526.692C74.1359 528.449 76.5167 529.437 79 529.44H410.56C413.044 529.437 415.426 528.449 417.183 526.693C418.939 524.936 419.927 522.554 419.93 520.07V54C419.927 51.5157 418.939 49.134 417.183 47.3773C415.426 45.6207 413.044 44.6326 410.56 44.63L79 44.61Z" fill="#EBEBEB"/>
<path d="M782 529.87H450.41C447.813 529.865 445.323 528.831 443.486 526.994C441.649 525.157 440.615 522.667 440.61 520.07V54C440.639 51.4181 441.684 48.9516 443.518 47.1342C445.352 45.3169 447.828 44.2951 450.41 44.29H782C784.577 44.2978 787.048 45.3218 788.875 47.1396C790.702 48.9575 791.739 51.4226 791.76 54V520.07C791.76 522.662 790.733 525.149 788.904 526.986C787.075 528.822 784.592 529.859 782 529.87V529.87ZM450.41 44.61C449.175 44.6074 447.952 44.8483 446.81 45.319C445.669 45.7897 444.631 46.481 443.757 47.3532C442.883 48.2254 442.19 49.2614 441.717 50.402C441.244 51.5425 441 52.7652 441 54V520.07C441.005 522.553 441.994 524.934 443.75 526.69C445.506 528.446 447.887 529.435 450.37 529.44H782C784.485 529.437 786.868 528.45 788.626 526.693C790.384 524.937 791.375 522.555 791.38 520.07V54C791.38 51.5113 790.392 49.1245 788.633 47.3638C786.874 45.6031 784.489 44.6127 782 44.61H450.41Z" fill="#EBEBEB"/>
<path d="M768.45 151.04H352.42V552.06H768.45V151.04Z" fill="#E0E0E0"/>
<path d="M768.45 158.32H359.1V545.05H768.45V158.32Z" fill="#F5F5F5"/>
<path d="M362.12 451.4V335.06H374.19V319.69L401.39 306.99V291.26H405.92V335.06H410.46V451.4H416.5V390.96H430.1V359.24H434.63V451.4H445.19V416.64H452.75V407.58H469.37V375.86H478.44V354.71H489.01V322.98H493.55V354.71H504.13V375.86H513.18V407.58H529.8V416.64H537.35V451.4H546.42V407.58H563.04V310.9H567.58V300.32H603.82V310.9H611.38V380.4H641.6V387.93H652.16V392.47H641.6V419.67H673.32V329.02H679.36V310.9H694.47V241.41H699V310.9H709.58V329.02H768.45V545.05H359.1V451.4H362.12Z" fill="#E6E6E6"/>
<path d="M736.99 333.76H732.71V338.04H736.99V333.76Z" fill="#F0F0F0"/>
<path d="M736.99 340.94H732.71V345.22H736.99V340.94Z" fill="#F0F0F0"/>
<path d="M736.99 369.65H732.71V373.93H736.99V369.65Z" fill="#F0F0F0"/>
<path d="M736.99 376.81H732.71V381.09H736.99V376.81Z" fill="#F0F0F0"/>
<path d="M736.99 383.98H732.71V388.26H736.99V383.98Z" fill="#F0F0F0"/>
<path d="M736.99 405.52H732.71V409.8H736.99V405.52Z" fill="#F0F0F0"/>
<path d="M736.99 412.7H732.71V416.98H736.99V412.7Z" fill="#F0F0F0"/>
<path d="M730.19 362.47H725.91V366.75H730.19V362.47Z" fill="#F0F0F0"/>
<path d="M730.19 369.65H725.91V373.93H730.19V369.65Z" fill="#F0F0F0"/>
<path d="M730.19 376.81H725.91V381.09H730.19V376.81Z" fill="#F0F0F0"/>
<path d="M730.19 383.98H725.91V388.26H730.19V383.98Z" fill="#F0F0F0"/>
<path d="M730.19 391.16H725.91V395.44H730.19V391.16Z" fill="#F0F0F0"/>
<path d="M730.19 405.52H725.91V409.8H730.19V405.52Z" fill="#F0F0F0"/>
<path d="M730.19 412.7H725.91V416.98H730.19V412.7Z" fill="#F0F0F0"/>
<path d="M723.39 333.76H719.11V338.04H723.39V333.76Z" fill="#F0F0F0"/>
<path d="M723.39 340.94H719.11V345.22H723.39V340.94Z" fill="#F0F0F0"/>
<path d="M723.39 348.11H719.11V352.39H723.39V348.11Z" fill="#F0F0F0"/>
<path d="M723.39 355.29H719.11V359.57H723.39V355.29Z" fill="#F0F0F0"/>
<path d="M723.39 362.47H719.11V366.75H723.39V362.47Z" fill="#F0F0F0"/>
<path d="M723.39 369.65H719.11V373.93H723.39V369.65Z" fill="#F0F0F0"/>
<path d="M723.39 376.81H719.11V381.09H723.39V376.81Z" fill="#F0F0F0"/>
<path d="M723.39 383.98H719.11V388.26H723.39V383.98Z" fill="#F0F0F0"/>
<path d="M723.39 391.16H719.11V395.44H723.39V391.16Z" fill="#F0F0F0"/>
<path d="M723.39 398.34H719.11V402.62H723.39V398.34Z" fill="#F0F0F0"/>
<path d="M723.39 412.7H719.11V416.98H723.39V412.7Z" fill="#F0F0F0"/>
<path d="M716.59 333.76H712.31V338.04H716.59V333.76Z" fill="#F0F0F0"/>
<path d="M716.59 340.94H712.31V345.22H716.59V340.94Z" fill="#F0F0F0"/>
<path d="M716.59 348.11H712.31V352.39H716.59V348.11Z" fill="#F0F0F0"/>
<path d="M716.59 355.29H712.31V359.57H716.59V355.29Z" fill="#F0F0F0"/>
<path d="M716.59 362.47H712.31V366.75H716.59V362.47Z" fill="#F0F0F0"/>
<path d="M716.59 369.65H712.31V373.93H716.59V369.65Z" fill="#F0F0F0"/>
<path d="M716.59 376.81H712.31V381.09H716.59V376.81Z" fill="#F0F0F0"/>
<path d="M716.59 441.41H712.31V445.69H716.59V441.41Z" fill="#F0F0F0"/>
<path d="M709.79 333.76H705.51V338.04H709.79V333.76Z" fill="#F0F0F0"/>
<path d="M709.79 340.94H705.51V345.22H709.79V340.94Z" fill="#F0F0F0"/>
<path d="M709.79 348.11H705.51V352.39H709.79V348.11Z" fill="#F0F0F0"/>
<path d="M709.79 355.29H705.51V359.57H709.79V355.29Z" fill="#F0F0F0"/>
<path d="M709.79 362.47H705.51V366.75H709.79V362.47Z" fill="#F0F0F0"/>
<path d="M709.79 369.65H705.51V373.93H709.79V369.65Z" fill="#F0F0F0"/>
<path d="M709.79 376.81H705.51V381.09H709.79V376.81Z" fill="#F0F0F0"/>
<path d="M709.79 383.98H705.51V388.26H709.79V383.98Z" fill="#F0F0F0"/>
<path d="M709.79 427.05H705.51V431.33H709.79V427.05Z" fill="#F0F0F0"/>
<path d="M709.79 434.23H705.51V438.51H709.79V434.23Z" fill="#F0F0F0"/>
<path d="M709.79 441.41H705.51V445.69H709.79V441.41Z" fill="#F0F0F0"/>
<path d="M709.79 448.57H705.51V452.85H709.79V448.57Z" fill="#F0F0F0"/>
<path d="M709.79 477.28H705.51V481.56H709.79V477.28Z" fill="#F0F0F0"/>
<path d="M702.99 333.76H698.71V338.04H702.99V333.76Z" fill="#F0F0F0"/>
<path d="M702.99 340.94H698.71V345.22H702.99V340.94Z" fill="#F0F0F0"/>
<path d="M702.99 348.11H698.71V352.39H702.99V348.11Z" fill="#F0F0F0"/>
<path d="M702.99 355.29H698.71V359.57H702.99V355.29Z" fill="#F0F0F0"/>
<path d="M702.99 362.47H698.71V366.75H702.99V362.47Z" fill="#F0F0F0"/>
<path d="M702.99 369.65H698.71V373.93H702.99V369.65Z" fill="#F0F0F0"/>
<path d="M702.99 376.81H698.71V381.09H702.99V376.81Z" fill="#F0F0F0"/>
<path d="M702.99 383.98H698.71V388.26H702.99V383.98Z" fill="#F0F0F0"/>
<path d="M702.99 391.16H698.71V395.44H702.99V391.16Z" fill="#F0F0F0"/>
<path d="M702.99 398.34H698.71V402.62H702.99V398.34Z" fill="#F0F0F0"/>
<path d="M702.99 419.87H698.71V424.15H702.99V419.87Z" fill="#F0F0F0"/>
<path d="M702.99 427.05H698.71V431.33H702.99V427.05Z" fill="#F0F0F0"/>
<path d="M702.99 434.23H698.71V438.51H702.99V434.23Z" fill="#F0F0F0"/>
<path d="M702.99 441.41H698.71V445.69H702.99V441.41Z" fill="#F0F0F0"/>
<path d="M702.99 448.57H698.71V452.85H702.99V448.57Z" fill="#F0F0F0"/>
<path d="M702.99 477.28H698.71V481.56H702.99V477.28Z" fill="#F0F0F0"/>
<path d="M696.19 333.76H691.91V338.04H696.19V333.76Z" fill="#F0F0F0"/>
<path d="M696.19 340.94H691.91V345.22H696.19V340.94Z" fill="#F0F0F0"/>
<path d="M696.19 348.11H691.91V352.39H696.19V348.11Z" fill="#F0F0F0"/>
<path d="M696.19 355.29H691.91V359.57H696.19V355.29Z" fill="#F0F0F0"/>
<path d="M696.19 362.47H691.91V366.75H696.19V362.47Z" fill="#F0F0F0"/>
<path d="M696.19 369.65H691.91V373.93H696.19V369.65Z" fill="#F0F0F0"/>
<path d="M696.19 376.81H691.91V381.09H696.19V376.81Z" fill="#F0F0F0"/>
<path d="M696.19 383.98H691.91V388.26H696.19V383.98Z" fill="#F0F0F0"/>
<path d="M696.19 391.16H691.91V395.44H696.19V391.16Z" fill="#F0F0F0"/>
<path d="M696.19 398.34H691.91V402.62H696.19V398.34Z" fill="#F0F0F0"/>
<path d="M696.19 405.52H691.91V409.8H696.19V405.52Z" fill="#F0F0F0"/>
<path d="M696.19 412.7H691.91V416.98H696.19V412.7Z" fill="#F0F0F0"/>
<path d="M696.19 419.87H691.91V424.15H696.19V419.87Z" fill="#F0F0F0"/>
<path d="M696.19 427.05H691.91V431.33H696.19V427.05Z" fill="#F0F0F0"/>
<path d="M696.19 434.23H691.91V438.51H696.19V434.23Z" fill="#F0F0F0"/>
<path d="M696.19 441.41H691.91V445.69H696.19V441.41Z" fill="#F0F0F0"/>
<path d="M696.19 448.57H691.91V452.85H696.19V448.57Z" fill="#F0F0F0"/>
<path d="M696.19 455.74H691.91V460.02H696.19V455.74Z" fill="#F0F0F0"/>
<path d="M689.39 333.76H685.11V338.04H689.39V333.76Z" fill="#F0F0F0"/>
<path d="M689.39 340.94H685.11V345.22H689.39V340.94Z" fill="#F0F0F0"/>
<path d="M689.39 348.11H685.11V352.39H689.39V348.11Z" fill="#F0F0F0"/>
<path d="M689.39 355.29H685.11V359.57H689.39V355.29Z" fill="#F0F0F0"/>
<path d="M689.39 362.47H685.11V366.75H689.39V362.47Z" fill="#F0F0F0"/>
<path d="M689.39 369.65H685.11V373.93H689.39V369.65Z" fill="#F0F0F0"/>
<path d="M689.39 376.81H685.11V381.09H689.39V376.81Z" fill="#F0F0F0"/>
<path d="M689.39 383.98H685.11V388.26H689.39V383.98Z" fill="#F0F0F0"/>
<path d="M689.39 391.16H685.11V395.44H689.39V391.16Z" fill="#F0F0F0"/>
<path d="M689.39 398.34H685.11V402.62H689.39V398.34Z" fill="#F0F0F0"/>
<path d="M689.39 419.87H685.11V424.15H689.39V419.87Z" fill="#F0F0F0"/>
<path d="M689.39 427.05H685.11V431.33H689.39V427.05Z" fill="#F0F0F0"/>
<path d="M689.39 434.23H685.11V438.51H689.39V434.23Z" fill="#F0F0F0"/>
<path d="M689.39 441.41H685.11V445.69H689.39V441.41Z" fill="#F0F0F0"/>
<path d="M682.61 333.76H678.33V338.04H682.61V333.76Z" fill="#F0F0F0"/>
<path d="M682.61 340.94H678.33V345.22H682.61V340.94Z" fill="#F0F0F0"/>
<path d="M682.61 348.11H678.33V352.39H682.61V348.11Z" fill="#F0F0F0"/>
<path d="M682.61 355.29H678.33V359.57H682.61V355.29Z" fill="#F0F0F0"/>
<path d="M682.61 362.47H678.33V366.75H682.61V362.47Z" fill="#F0F0F0"/>
<path d="M682.61 369.65H678.33V373.93H682.61V369.65Z" fill="#F0F0F0"/>
<path d="M682.61 376.81H678.33V381.09H682.61V376.81Z" fill="#F0F0F0"/>
<path d="M682.61 383.98H678.33V388.26H682.61V383.98Z" fill="#F0F0F0"/>
<path d="M682.61 391.16H678.33V395.44H682.61V391.16Z" fill="#F0F0F0"/>
<path d="M682.61 398.34H678.33V402.62H682.61V398.34Z" fill="#F0F0F0"/>
<path d="M682.61 419.87H678.33V424.15H682.61V419.87Z" fill="#F0F0F0"/>
<path d="M682.61 427.05H678.33V431.33H682.61V427.05Z" fill="#F0F0F0"/>
<path d="M682.61 434.23H678.33V438.51H682.61V434.23Z" fill="#F0F0F0"/>
<path d="M606.06 315.13H601.78V319.41H606.06V315.13Z" fill="#F0F0F0"/>
<path d="M606.06 322.3H601.78V326.58H606.06V322.3Z" fill="#F0F0F0"/>
<path d="M606.06 329.48H601.78V333.76H606.06V329.48Z" fill="#F0F0F0"/>
<path d="M606.06 336.66H601.78V340.94H606.06V336.66Z" fill="#F0F0F0"/>
<path d="M606.06 343.84H601.78V348.12H606.06V343.84Z" fill="#F0F0F0"/>
<path d="M606.06 351.02H601.78V355.3H606.06V351.02Z" fill="#F0F0F0"/>
<path d="M606.06 358.18H601.78V362.46H606.06V358.18Z" fill="#F0F0F0"/>
<path d="M606.06 365.35H601.78V369.63H606.06V365.35Z" fill="#F0F0F0"/>
<path d="M606.06 386.89H601.78V391.17H606.06V386.89Z" fill="#F0F0F0"/>
<path d="M606.06 394.06H601.78V398.34H606.06V394.06Z" fill="#F0F0F0"/>
<path d="M599.26 315.13H594.98V319.41H599.26V315.13Z" fill="#F0F0F0"/>
<path d="M599.26 322.3H594.98V326.58H599.26V322.3Z" fill="#F0F0F0"/>
<path d="M599.26 329.48H594.98V333.76H599.26V329.48Z" fill="#F0F0F0"/>
<path d="M599.26 336.66H594.98V340.94H599.26V336.66Z" fill="#F0F0F0"/>
<path d="M599.26 343.84H594.98V348.12H599.26V343.84Z" fill="#F0F0F0"/>
<path d="M599.26 351.02H594.98V355.3H599.26V351.02Z" fill="#F0F0F0"/>
<path d="M599.26 358.18H594.98V362.46H599.26V358.18Z" fill="#F0F0F0"/>
<path d="M599.26 365.35H594.98V369.63H599.26V365.35Z" fill="#F0F0F0"/>
<path d="M599.26 394.06H594.98V398.34H599.26V394.06Z" fill="#F0F0F0"/>
<path d="M592.46 315.13H588.18V319.41H592.46V315.13Z" fill="#F0F0F0"/>
<path d="M592.46 322.3H588.18V326.58H592.46V322.3Z" fill="#F0F0F0"/>
<path d="M592.46 329.48H588.18V333.76H592.46V329.48Z" fill="#F0F0F0"/>
<path d="M592.46 336.66H588.18V340.94H592.46V336.66Z" fill="#F0F0F0"/>
<path d="M592.46 343.84H588.18V348.12H592.46V343.84Z" fill="#F0F0F0"/>
<path d="M592.46 351.02H588.18V355.3H592.46V351.02Z" fill="#F0F0F0"/>
<path d="M592.46 358.18H588.18V362.46H592.46V358.18Z" fill="#F0F0F0"/>
<path d="M592.46 365.35H588.18V369.63H592.46V365.35Z" fill="#F0F0F0"/>
<path d="M585.66 315.13H581.38V319.41H585.66V315.13Z" fill="#F0F0F0"/>
<path d="M585.66 322.3H581.38V326.58H585.66V322.3Z" fill="#F0F0F0"/>
<path d="M585.66 329.48H581.38V333.76H585.66V329.48Z" fill="#F0F0F0"/>
<path d="M585.66 336.66H581.38V340.94H585.66V336.66Z" fill="#F0F0F0"/>
<path d="M585.66 343.84H581.38V348.12H585.66V343.84Z" fill="#F0F0F0"/>
<path d="M585.66 351.02H581.38V355.3H585.66V351.02Z" fill="#F0F0F0"/>
<path d="M585.66 365.35H581.38V369.63H585.66V365.35Z" fill="#F0F0F0"/>
<path d="M585.66 372.53H581.38V376.81H585.66V372.53Z" fill="#F0F0F0"/>
<path d="M585.66 394.06H581.38V398.34H585.66V394.06Z" fill="#F0F0F0"/>
<path d="M585.66 401.24H581.38V405.52H585.66V401.24Z" fill="#F0F0F0"/>
<path d="M585.66 408.42H581.38V412.7H585.66V408.42Z" fill="#F0F0F0"/>
<path d="M585.66 415.6H581.38V419.88H585.66V415.6Z" fill="#F0F0F0"/>
<path d="M585.66 422.77H581.38V427.05H585.66V422.77Z" fill="#F0F0F0"/>
<path d="M585.66 429.94H581.38V434.22H585.66V429.94Z" fill="#F0F0F0"/>
<path d="M585.66 437.11H581.38V441.39H585.66V437.11Z" fill="#F0F0F0"/>
<path d="M578.86 315.13H574.58V319.41H578.86V315.13Z" fill="#F0F0F0"/>
<path d="M578.86 322.3H574.58V326.58H578.86V322.3Z" fill="#F0F0F0"/>
<path d="M578.86 329.48H574.58V333.76H578.86V329.48Z" fill="#F0F0F0"/>
<path d="M578.86 336.66H574.58V340.94H578.86V336.66Z" fill="#F0F0F0"/>
<path d="M578.86 343.84H574.58V348.12H578.86V343.84Z" fill="#F0F0F0"/>
<path d="M578.86 351.02H574.58V355.3H578.86V351.02Z" fill="#F0F0F0"/>
<path d="M578.86 372.53H574.58V376.81H578.86V372.53Z" fill="#F0F0F0"/>
<path d="M578.86 379.71H574.58V383.99H578.86V379.71Z" fill="#F0F0F0"/>
<path d="M578.86 386.89H574.58V391.17H578.86V386.89Z" fill="#F0F0F0"/>
<path d="M578.86 394.06H574.58V398.34H578.86V394.06Z" fill="#F0F0F0"/>
<path d="M578.86 401.24H574.58V405.52H578.86V401.24Z" fill="#F0F0F0"/>
<path d="M578.86 408.42H574.58V412.7H578.86V408.42Z" fill="#F0F0F0"/>
<path d="M578.86 415.6H574.58V419.88H578.86V415.6Z" fill="#F0F0F0"/>
<path d="M578.86 422.77H574.58V427.05H578.86V422.77Z" fill="#F0F0F0"/>
<path d="M578.86 429.94H574.58V434.22H578.86V429.94Z" fill="#F0F0F0"/>
<path d="M578.86 437.11H574.58V441.39H578.86V437.11Z" fill="#F0F0F0"/>
<path d="M578.86 444.29H574.58V448.57H578.86V444.29Z" fill="#F0F0F0"/>
<path d="M578.86 458.65H574.58V462.93H578.86V458.65Z" fill="#F0F0F0"/>
<path d="M572.06 315.13H567.78V319.41H572.06V315.13Z" fill="#F0F0F0"/>
<path d="M572.06 322.3H567.78V326.58H572.06V322.3Z" fill="#F0F0F0"/>
<path d="M572.06 329.48H567.78V333.76H572.06V329.48Z" fill="#F0F0F0"/>
<path d="M572.06 336.66H567.78V340.94H572.06V336.66Z" fill="#F0F0F0"/>
<path d="M572.06 343.84H567.78V348.12H572.06V343.84Z" fill="#F0F0F0"/>
<path d="M572.06 351.02H567.78V355.3H572.06V351.02Z" fill="#F0F0F0"/>
<path d="M572.06 372.53H567.78V376.81H572.06V372.53Z" fill="#F0F0F0"/>
<path d="M572.06 379.71H567.78V383.99H572.06V379.71Z" fill="#F0F0F0"/>
<path d="M572.06 386.89H567.78V391.17H572.06V386.89Z" fill="#F0F0F0"/>
<path d="M572.06 394.06H567.78V398.34H572.06V394.06Z" fill="#F0F0F0"/>
<path d="M572.06 415.6H567.78V419.88H572.06V415.6Z" fill="#F0F0F0"/>
<path d="M572.06 422.77H567.78V427.05H572.06V422.77Z" fill="#F0F0F0"/>
<path d="M572.06 429.94H567.78V434.22H572.06V429.94Z" fill="#F0F0F0"/>
<path d="M572.06 437.11H567.78V441.39H572.06V437.11Z" fill="#F0F0F0"/>
<path d="M572.06 444.29H567.78V448.57H572.06V444.29Z" fill="#F0F0F0"/>
<path d="M572.06 458.65H567.78V462.93H572.06V458.65Z" fill="#F0F0F0"/>
<path d="M572.06 465.82H567.78V470.1H572.06V465.82Z" fill="#F0F0F0"/>
<path d="M510.38 381.86H506.1V386.14H510.38V381.86Z" fill="#F0F0F0"/>
<path d="M510.38 389.03H506.1V393.31H510.38V389.03Z" fill="#F0F0F0"/>
<path d="M510.38 396.21H506.1V400.49H510.38V396.21Z" fill="#F0F0F0"/>
<path d="M510.38 403.37H506.1V407.65H510.38V403.37Z" fill="#F0F0F0"/>
<path d="M510.38 410.55H506.1V414.83H510.38V410.55Z" fill="#F0F0F0"/>
<path d="M510.38 417.73H506.1V422.01H510.38V417.73Z" fill="#F0F0F0"/>
<path d="M510.38 424.9H506.1V429.18H510.38V424.9Z" fill="#F0F0F0"/>
<path d="M510.38 446.44H506.1V450.72H510.38V446.44Z" fill="#F0F0F0"/>
<path d="M510.38 453.61H506.1V457.89H510.38V453.61Z" fill="#F0F0F0"/>
<path d="M510.38 460.79H506.1V465.07H510.38V460.79Z" fill="#F0F0F0"/>
<path d="M503.58 381.86H499.3V386.14H503.58V381.86Z" fill="#F0F0F0"/>
<path d="M503.58 389.03H499.3V393.31H503.58V389.03Z" fill="#F0F0F0"/>
<path d="M503.58 396.21H499.3V400.49H503.58V396.21Z" fill="#F0F0F0"/>
<path d="M503.58 403.37H499.3V407.65H503.58V403.37Z" fill="#F0F0F0"/>
<path d="M503.58 410.55H499.3V414.83H503.58V410.55Z" fill="#F0F0F0"/>
<path d="M503.58 417.73H499.3V422.01H503.58V417.73Z" fill="#F0F0F0"/>
<path d="M503.58 424.9H499.3V429.18H503.58V424.9Z" fill="#F0F0F0"/>
<path d="M496.78 381.86H492.5V386.14H496.78V381.86Z" fill="#F0F0F0"/>
<path d="M496.78 389.03H492.5V393.31H496.78V389.03Z" fill="#F0F0F0"/>
<path d="M496.78 396.21H492.5V400.49H496.78V396.21Z" fill="#F0F0F0"/>
<path d="M496.78 403.37H492.5V407.65H496.78V403.37Z" fill="#F0F0F0"/>
<path d="M496.78 410.55H492.5V414.83H496.78V410.55Z" fill="#F0F0F0"/>
<path d="M496.78 417.73H492.5V422.01H496.78V417.73Z" fill="#F0F0F0"/>
<path d="M496.78 424.9H492.5V429.18H496.78V424.9Z" fill="#F0F0F0"/>
<path d="M489.98 381.86H485.7V386.14H489.98V381.86Z" fill="#F0F0F0"/>
<path d="M489.98 389.03H485.7V393.31H489.98V389.03Z" fill="#F0F0F0"/>
<path d="M489.98 396.21H485.7V400.49H489.98V396.21Z" fill="#F0F0F0"/>
<path d="M489.98 403.37H485.7V407.65H489.98V403.37Z" fill="#F0F0F0"/>
<path d="M489.98 410.55H485.7V414.83H489.98V410.55Z" fill="#F0F0F0"/>
<path d="M489.98 417.73H485.7V422.01H489.98V417.73Z" fill="#F0F0F0"/>
<path d="M489.98 424.9H485.7V429.18H489.98V424.9Z" fill="#F0F0F0"/>
<path d="M489.98 432.08H485.7V436.36H489.98V432.08Z" fill="#F0F0F0"/>
<path d="M489.98 439.26H485.7V443.54H489.98V439.26Z" fill="#F0F0F0"/>
<path d="M489.98 446.44H485.7V450.72H489.98V446.44Z" fill="#F0F0F0"/>
<path d="M489.98 453.61H485.7V457.89H489.98V453.61Z" fill="#F0F0F0"/>
<path d="M483.18 381.86H478.9V386.14H483.18V381.86Z" fill="#F0F0F0"/>
<path d="M483.18 389.03H478.9V393.31H483.18V389.03Z" fill="#F0F0F0"/>
<path d="M483.18 396.21H478.9V400.49H483.18V396.21Z" fill="#F0F0F0"/>
<path d="M483.18 403.37H478.9V407.65H483.18V403.37Z" fill="#F0F0F0"/>
<path d="M483.18 410.55H478.9V414.83H483.18V410.55Z" fill="#F0F0F0"/>
<path d="M483.18 417.73H478.9V422.01H483.18V417.73Z" fill="#F0F0F0"/>
<path d="M483.18 424.9H478.9V429.18H483.18V424.9Z" fill="#F0F0F0"/>
<path d="M483.18 432.08H478.9V436.36H483.18V432.08Z" fill="#F0F0F0"/>
<path d="M483.18 439.26H478.9V443.54H483.18V439.26Z" fill="#F0F0F0"/>
<path d="M483.18 446.44H478.9V450.72H483.18V446.44Z" fill="#F0F0F0"/>
<path d="M483.18 453.61H478.9V457.89H483.18V453.61Z" fill="#F0F0F0"/>
<path d="M483.18 460.79H478.9V465.07H483.18V460.79Z" fill="#F0F0F0"/>
<path d="M483.18 482.31H478.9V486.59H483.18V482.31Z" fill="#F0F0F0"/>
<path d="M483.18 489.49H478.9V493.77H483.18V489.49Z" fill="#F0F0F0"/>
<path d="M476.38 381.86H472.1V386.14H476.38V381.86Z" fill="#F0F0F0"/>
<path d="M476.38 389.03H472.1V393.31H476.38V389.03Z" fill="#F0F0F0"/>
<path d="M476.38 396.21H472.1V400.49H476.38V396.21Z" fill="#F0F0F0"/>
<path d="M476.38 417.73H472.1V422.01H476.38V417.73Z" fill="#F0F0F0"/>
<path d="M476.38 424.9H472.1V429.18H476.38V424.9Z" fill="#F0F0F0"/>
<path d="M476.38 432.08H472.1V436.36H476.38V432.08Z" fill="#F0F0F0"/>
<path d="M476.38 439.26H472.1V443.54H476.38V439.26Z" fill="#F0F0F0"/>
<path d="M476.38 446.44H472.1V450.72H476.38V446.44Z" fill="#F0F0F0"/>
<path d="M476.38 453.61H472.1V457.89H476.38V453.61Z" fill="#F0F0F0"/>
<path d="M476.38 460.79H472.1V465.07H476.38V460.79Z" fill="#F0F0F0"/>
<path d="M476.38 482.31H472.1V486.59H476.38V482.31Z" fill="#F0F0F0"/>
<path d="M476.38 489.49H472.1V493.77H476.38V489.49Z" fill="#F0F0F0"/>
<path d="M476.38 496.66H472.1V500.94H476.38V496.66Z" fill="#F0F0F0"/>
<path d="M405.14 338.79H400.86V343.07H405.14V338.79Z" fill="#F0F0F0"/>
<path d="M405.14 345.97H400.86V350.25H405.14V345.97Z" fill="#F0F0F0"/>
<path d="M405.14 353.14H400.86V357.42H405.14V353.14Z" fill="#F0F0F0"/>
<path d="M405.14 360.32H400.86V364.6H405.14V360.32Z" fill="#F0F0F0"/>
<path d="M405.14 367.5H400.86V371.78H405.14V367.5Z" fill="#F0F0F0"/>
<path d="M405.14 374.68H400.86V378.96H405.14V374.68Z" fill="#F0F0F0"/>
<path d="M405.14 381.86H400.86V386.14H405.14V381.86Z" fill="#F0F0F0"/>
<path d="M405.14 389.03H400.86V393.31H405.14V389.03Z" fill="#F0F0F0"/>
<path d="M405.14 396.21H400.86V400.49H405.14V396.21Z" fill="#F0F0F0"/>
<path d="M405.14 403.37H400.86V407.65H405.14V403.37Z" fill="#F0F0F0"/>
<path d="M405.14 410.55H400.86V414.83H405.14V410.55Z" fill="#F0F0F0"/>
<path d="M405.14 417.73H400.86V422.01H405.14V417.73Z" fill="#F0F0F0"/>
<path d="M405.14 424.9H400.86V429.18H405.14V424.9Z" fill="#F0F0F0"/>
<path d="M405.14 432.08H400.86V436.36H405.14V432.08Z" fill="#F0F0F0"/>
<path d="M405.14 439.26H400.86V443.54H405.14V439.26Z" fill="#F0F0F0"/>
<path d="M405.14 446.44H400.86V450.72H405.14V446.44Z" fill="#F0F0F0"/>
<path d="M405.14 453.61H400.86V457.89H405.14V453.61Z" fill="#F0F0F0"/>
<path d="M405.14 460.79H400.86V465.07H405.14V460.79Z" fill="#F0F0F0"/>
<path d="M405.14 467.97H400.86V472.25H405.14V467.97Z" fill="#F0F0F0"/>
<path d="M405.14 475.13H400.86V479.41H405.14V475.13Z" fill="#F0F0F0"/>
<path d="M405.14 482.31H400.86V486.59H405.14V482.31Z" fill="#F0F0F0"/>
<path d="M405.14 489.49H400.86V493.77H405.14V489.49Z" fill="#F0F0F0"/>
<path d="M405.14 496.66H400.86V500.94H405.14V496.66Z" fill="#F0F0F0"/>
<path d="M398.34 338.79H394.06V343.07H398.34V338.79Z" fill="#F0F0F0"/>
<path d="M398.34 345.97H394.06V350.25H398.34V345.97Z" fill="#F0F0F0"/>
<path d="M398.34 353.14H394.06V357.42H398.34V353.14Z" fill="#F0F0F0"/>
<path d="M398.34 360.32H394.06V364.6H398.34V360.32Z" fill="#F0F0F0"/>
<path d="M398.34 367.5H394.06V371.78H398.34V367.5Z" fill="#F0F0F0"/>
<path d="M398.34 374.68H394.06V378.96H398.34V374.68Z" fill="#F0F0F0"/>
<path d="M398.34 381.86H394.06V386.14H398.34V381.86Z" fill="#F0F0F0"/>
<path d="M398.34 389.03H394.06V393.31H398.34V389.03Z" fill="#F0F0F0"/>
<path d="M398.34 396.21H394.06V400.49H398.34V396.21Z" fill="#F0F0F0"/>
<path d="M398.34 403.37H394.06V407.65H398.34V403.37Z" fill="#F0F0F0"/>
<path d="M398.34 410.55H394.06V414.83H398.34V410.55Z" fill="#F0F0F0"/>
<path d="M398.34 417.73H394.06V422.01H398.34V417.73Z" fill="#F0F0F0"/>
<path d="M398.34 424.9H394.06V429.18H398.34V424.9Z" fill="#F0F0F0"/>
<path d="M398.34 432.08H394.06V436.36H398.34V432.08Z" fill="#F0F0F0"/>
<path d="M398.34 439.26H394.06V443.54H398.34V439.26Z" fill="#F0F0F0"/>
<path d="M398.34 446.44H394.06V450.72H398.34V446.44Z" fill="#F0F0F0"/>
<path d="M398.34 453.61H394.06V457.89H398.34V453.61Z" fill="#F0F0F0"/>
<path d="M398.34 460.79H394.06V465.07H398.34V460.79Z" fill="#F0F0F0"/>
<path d="M398.34 467.97H394.06V472.25H398.34V467.97Z" fill="#F0F0F0"/>
<path d="M391.54 338.79H387.26V343.07H391.54V338.79Z" fill="#F0F0F0"/>
<path d="M391.54 345.97H387.26V350.25H391.54V345.97Z" fill="#F0F0F0"/>
<path d="M391.54 353.14H387.26V357.42H391.54V353.14Z" fill="#F0F0F0"/>
<path d="M391.54 360.32H387.26V364.6H391.54V360.32Z" fill="#F0F0F0"/>
<path d="M391.54 367.5H387.26V371.78H391.54V367.5Z" fill="#F0F0F0"/>
<path d="M391.54 374.68H387.26V378.96H391.54V374.68Z" fill="#F0F0F0"/>
<path d="M391.54 381.86H387.26V386.14H391.54V381.86Z" fill="#F0F0F0"/>
<path d="M391.54 389.03H387.26V393.31H391.54V389.03Z" fill="#F0F0F0"/>
<path d="M391.54 396.21H387.26V400.49H391.54V396.21Z" fill="#F0F0F0"/>
<path d="M391.54 403.37H387.26V407.65H391.54V403.37Z" fill="#F0F0F0"/>
<path d="M391.54 410.55H387.26V414.83H391.54V410.55Z" fill="#F0F0F0"/>
<path d="M391.54 417.73H387.26V422.01H391.54V417.73Z" fill="#F0F0F0"/>
<path d="M391.54 424.9H387.26V429.18H391.54V424.9Z" fill="#F0F0F0"/>
<path d="M391.54 432.08H387.26V436.36H391.54V432.08Z" fill="#F0F0F0"/>
<path d="M391.54 439.26H387.26V443.54H391.54V439.26Z" fill="#F0F0F0"/>
<path d="M391.54 446.44H387.26V450.72H391.54V446.44Z" fill="#F0F0F0"/>
<path d="M391.54 453.61H387.26V457.89H391.54V453.61Z" fill="#F0F0F0"/>
<path d="M391.54 460.79H387.26V465.07H391.54V460.79Z" fill="#F0F0F0"/>
<path d="M391.54 467.97H387.26V472.25H391.54V467.97Z" fill="#F0F0F0"/>
<path d="M384.74 338.79H380.46V343.07H384.74V338.79Z" fill="#F0F0F0"/>
<path d="M384.74 345.97H380.46V350.25H384.74V345.97Z" fill="#F0F0F0"/>
<path d="M384.74 353.14H380.46V357.42H384.74V353.14Z" fill="#F0F0F0"/>
<path d="M384.74 360.32H380.46V364.6H384.74V360.32Z" fill="#F0F0F0"/>
<path d="M384.74 367.5H380.46V371.78H384.74V367.5Z" fill="#F0F0F0"/>
<path d="M384.74 374.68H380.46V378.96H384.74V374.68Z" fill="#F0F0F0"/>
<path d="M384.74 381.86H380.46V386.14H384.74V381.86Z" fill="#F0F0F0"/>
<path d="M384.74 389.03H380.46V393.31H384.74V389.03Z" fill="#F0F0F0"/>
<path d="M384.74 396.21H380.46V400.49H384.74V396.21Z" fill="#F0F0F0"/>
<path d="M384.74 403.37H380.46V407.65H384.74V403.37Z" fill="#F0F0F0"/>
<path d="M384.74 410.55H380.46V414.83H384.74V410.55Z" fill="#F0F0F0"/>
<path d="M384.74 417.73H380.46V422.01H384.74V417.73Z" fill="#F0F0F0"/>
<path d="M384.74 424.9H380.46V429.18H384.74V424.9Z" fill="#F0F0F0"/>
<path d="M384.74 432.08H380.46V436.36H384.74V432.08Z" fill="#F0F0F0"/>
<path d="M384.74 439.26H380.46V443.54H384.74V439.26Z" fill="#F0F0F0"/>
<path d="M377.94 338.79H373.66V343.07H377.94V338.79Z" fill="#F0F0F0"/>
<path d="M377.94 345.97H373.66V350.25H377.94V345.97Z" fill="#F0F0F0"/>
<path d="M377.94 353.14H373.66V357.42H377.94V353.14Z" fill="#F0F0F0"/>
<path d="M377.94 360.32H373.66V364.6H377.94V360.32Z" fill="#F0F0F0"/>
<path d="M377.94 367.5H373.66V371.78H377.94V367.5Z" fill="#F0F0F0"/>
<path d="M377.94 374.68H373.66V378.96H377.94V374.68Z" fill="#F0F0F0"/>
<path d="M377.94 381.86H373.66V386.14H377.94V381.86Z" fill="#F0F0F0"/>
<path d="M377.94 389.03H373.66V393.31H377.94V389.03Z" fill="#F0F0F0"/>
<path d="M377.94 396.21H373.66V400.49H377.94V396.21Z" fill="#F0F0F0"/>
<path d="M377.94 403.37H373.66V407.65H377.94V403.37Z" fill="#F0F0F0"/>
<path d="M377.94 410.55H373.66V414.83H377.94V410.55Z" fill="#F0F0F0"/>
<path d="M377.94 417.73H373.66V422.01H377.94V417.73Z" fill="#F0F0F0"/>
<path d="M377.94 424.9H373.66V429.18H377.94V424.9Z" fill="#F0F0F0"/>
<path d="M371.14 338.79H366.86V343.07H371.14V338.79Z" fill="#F0F0F0"/>
<path d="M371.14 345.97H366.86V350.25H371.14V345.97Z" fill="#F0F0F0"/>
<path d="M371.14 353.14H366.86V357.42H371.14V353.14Z" fill="#F0F0F0"/>
<path d="M371.14 360.32H366.86V364.6H371.14V360.32Z" fill="#F0F0F0"/>
<path d="M371.14 367.5H366.86V371.78H371.14V367.5Z" fill="#F0F0F0"/>
<path d="M371.14 374.68H366.86V378.96H371.14V374.68Z" fill="#F0F0F0"/>
<path d="M371.14 381.86H366.86V386.14H371.14V381.86Z" fill="#F0F0F0"/>
<path d="M371.14 389.03H366.86V393.31H371.14V389.03Z" fill="#F0F0F0"/>
<path d="M371.14 396.21H366.86V400.49H371.14V396.21Z" fill="#F0F0F0"/>
<path d="M371.14 403.37H366.86V407.65H371.14V403.37Z" fill="#F0F0F0"/>
<path d="M371.14 410.55H366.86V414.83H371.14V410.55Z" fill="#F0F0F0"/>
<path d="M371.14 417.73H366.86V422.01H371.14V417.73Z" fill="#F0F0F0"/>
<path d="M767.95 336.66H763.67V340.94H767.95V336.66Z" fill="#F0F0F0"/>
<path d="M767.95 343.84H763.67V348.12H767.95V343.84Z" fill="#F0F0F0"/>
<path d="M767.95 351.02H763.67V355.3H767.95V351.02Z" fill="#F0F0F0"/>
<path d="M767.95 358.18H763.67V362.46H767.95V358.18Z" fill="#F0F0F0"/>
<path d="M767.95 365.35H763.67V369.63H767.95V365.35Z" fill="#F0F0F0"/>
<path d="M767.95 372.53H763.67V376.81H767.95V372.53Z" fill="#F0F0F0"/>
<path d="M767.95 379.71H763.67V383.99H767.95V379.71Z" fill="#F0F0F0"/>
<path d="M767.95 386.89H763.67V391.17H767.95V386.89Z" fill="#F0F0F0"/>
<path d="M767.95 394.06H763.67V398.34H767.95V394.06Z" fill="#F0F0F0"/>
<path d="M767.95 401.24H763.67V405.52H767.95V401.24Z" fill="#F0F0F0"/>
<path d="M767.95 408.42H763.67V412.7H767.95V408.42Z" fill="#F0F0F0"/>
<path d="M767.95 415.6H763.67V419.88H767.95V415.6Z" fill="#F0F0F0"/>
<path d="M767.95 422.77H763.67V427.05H767.95V422.77Z" fill="#F0F0F0"/>
<path d="M767.95 429.94H763.67V434.22H767.95V429.94Z" fill="#F0F0F0"/>
<path d="M767.95 437.11H763.67V441.39H767.95V437.11Z" fill="#F0F0F0"/>
<path d="M767.95 444.29H763.67V448.57H767.95V444.29Z" fill="#F0F0F0"/>
<path d="M767.95 451.47H763.67V455.75H767.95V451.47Z" fill="#F0F0F0"/>
<path d="M767.95 465.82H763.67V470.1H767.95V465.82Z" fill="#F0F0F0"/>
<path d="M767.95 473H763.67V477.28H767.95V473Z" fill="#F0F0F0"/>
<path d="M767.95 480.18H763.67V484.46H767.95V480.18Z" fill="#F0F0F0"/>
<path d="M767.95 487.36H763.67V491.64H767.95V487.36Z" fill="#F0F0F0"/>
<path d="M767.95 494.52H763.67V498.8H767.95V494.52Z" fill="#F0F0F0"/>
<path d="M761.15 336.66H756.87V340.94H761.15V336.66Z" fill="#F0F0F0"/>
<path d="M761.15 343.84H756.87V348.12H761.15V343.84Z" fill="#F0F0F0"/>
<path d="M761.15 351.02H756.87V355.3H761.15V351.02Z" fill="#F0F0F0"/>
<path d="M761.15 358.18H756.87V362.46H761.15V358.18Z" fill="#F0F0F0"/>
<path d="M761.15 365.35H756.87V369.63H761.15V365.35Z" fill="#F0F0F0"/>
<path d="M761.15 372.53H756.87V376.81H761.15V372.53Z" fill="#F0F0F0"/>
<path d="M761.15 379.71H756.87V383.99H761.15V379.71Z" fill="#F0F0F0"/>
<path d="M761.15 386.89H756.87V391.17H761.15V386.89Z" fill="#F0F0F0"/>
<path d="M761.15 394.06H756.87V398.34H761.15V394.06Z" fill="#F0F0F0"/>
<path d="M761.15 401.24H756.87V405.52H761.15V401.24Z" fill="#F0F0F0"/>
<path d="M761.15 408.42H756.87V412.7H761.15V408.42Z" fill="#F0F0F0"/>
<path d="M761.15 415.6H756.87V419.88H761.15V415.6Z" fill="#F0F0F0"/>
<path d="M761.15 422.77H756.87V427.05H761.15V422.77Z" fill="#F0F0F0"/>
<path d="M761.15 429.94H756.87V434.22H761.15V429.94Z" fill="#F0F0F0"/>
<path d="M761.15 437.11H756.87V441.39H761.15V437.11Z" fill="#F0F0F0"/>
<path d="M761.15 444.29H756.87V448.57H761.15V444.29Z" fill="#F0F0F0"/>
<path d="M761.15 487.36H756.87V491.64H761.15V487.36Z" fill="#F0F0F0"/>
<path d="M761.15 494.52H756.87V498.8H761.15V494.52Z" fill="#F0F0F0"/>
<path d="M754.37 336.66H750.09V340.94H754.37V336.66Z" fill="#F0F0F0"/>
<path d="M754.37 343.84H750.09V348.12H754.37V343.84Z" fill="#F0F0F0"/>
<path d="M754.37 351.02H750.09V355.3H754.37V351.02Z" fill="#F0F0F0"/>
<path d="M754.37 358.18H750.09V362.46H754.37V358.18Z" fill="#F0F0F0"/>
<path d="M754.37 365.35H750.09V369.63H754.37V365.35Z" fill="#F0F0F0"/>
<path d="M754.37 372.53H750.09V376.81H754.37V372.53Z" fill="#F0F0F0"/>
<path d="M754.37 379.71H750.09V383.99H754.37V379.71Z" fill="#F0F0F0"/>
<path d="M754.37 386.89H750.09V391.17H754.37V386.89Z" fill="#F0F0F0"/>
<path d="M754.37 394.06H750.09V398.34H754.37V394.06Z" fill="#F0F0F0"/>
<path d="M754.37 401.24H750.09V405.52H754.37V401.24Z" fill="#F0F0F0"/>
<path d="M754.37 408.42H750.09V412.7H754.37V408.42Z" fill="#F0F0F0"/>
<path d="M754.37 415.6H750.09V419.88H754.37V415.6Z" fill="#F0F0F0"/>
<path d="M754.37 422.77H750.09V427.05H754.37V422.77Z" fill="#F0F0F0"/>
<path d="M754.37 429.94H750.09V434.22H754.37V429.94Z" fill="#F0F0F0"/>
<path d="M754.37 437.11H750.09V441.39H754.37V437.11Z" fill="#F0F0F0"/>
<path d="M754.37 444.29H750.09V448.57H754.37V444.29Z" fill="#F0F0F0"/>
<path d="M754.37 458.65H750.09V462.93H754.37V458.65Z" fill="#F0F0F0"/>
<path d="M754.37 465.82H750.09V470.1H754.37V465.82Z" fill="#F0F0F0"/>
<path d="M754.37 473H750.09V477.28H754.37V473Z" fill="#F0F0F0"/>
<path d="M754.37 480.18H750.09V484.46H754.37V480.18Z" fill="#F0F0F0"/>
<path d="M754.37 494.52H750.09V498.8H754.37V494.52Z" fill="#F0F0F0"/>
<path d="M635.77 386.89H631.49V391.17H635.77V386.89Z" fill="#F0F0F0"/>
<path d="M635.77 394.06H631.49V398.34H635.77V394.06Z" fill="#F0F0F0"/>
<path d="M635.77 401.24H631.49V405.52H635.77V401.24Z" fill="#F0F0F0"/>
<path d="M635.77 408.42H631.49V412.7H635.77V408.42Z" fill="#F0F0F0"/>
<path d="M635.77 415.6H631.49V419.88H635.77V415.6Z" fill="#F0F0F0"/>
<path d="M635.77 422.77H631.49V427.05H635.77V422.77Z" fill="#F0F0F0"/>
<path d="M635.77 429.94H631.49V434.22H635.77V429.94Z" fill="#F0F0F0"/>
<path d="M635.77 437.11H631.49V441.39H635.77V437.11Z" fill="#F0F0F0"/>
<path d="M635.77 444.29H631.49V448.57H635.77V444.29Z" fill="#F0F0F0"/>
<path d="M635.77 451.47H631.49V455.75H635.77V451.47Z" fill="#F0F0F0"/>
<path d="M635.77 458.65H631.49V462.93H635.77V458.65Z" fill="#F0F0F0"/>
<path d="M635.77 465.82H631.49V470.1H635.77V465.82Z" fill="#F0F0F0"/>
<path d="M635.77 473H631.49V477.28H635.77V473Z" fill="#F0F0F0"/>
<path d="M635.77 487.36H631.49V491.64H635.77V487.36Z" fill="#F0F0F0"/>
<path d="M635.77 494.52H631.49V498.8H635.77V494.52Z" fill="#F0F0F0"/>
<path d="M635.77 501.69H631.49V505.97H635.77V501.69Z" fill="#F0F0F0"/>
<path d="M635.77 508.87H631.49V513.15H635.77V508.87Z" fill="#F0F0F0"/>
<path d="M635.77 523.23H631.49V527.51H635.77V523.23Z" fill="#F0F0F0"/>
<path d="M635.77 530.41H631.49V534.69H635.77V530.41Z" fill="#F0F0F0"/>
<path d="M635.77 537.58H631.49V541.86H635.77V537.58Z" fill="#F0F0F0"/>
<path d="M628.97 386.89H624.69V391.17H628.97V386.89Z" fill="#F0F0F0"/>
<path d="M628.97 394.06H624.69V398.34H628.97V394.06Z" fill="#F0F0F0"/>
<path d="M628.97 401.24H624.69V405.52H628.97V401.24Z" fill="#F0F0F0"/>
<path d="M628.97 408.42H624.69V412.7H628.97V408.42Z" fill="#F0F0F0"/>
<path d="M628.97 415.6H624.69V419.88H628.97V415.6Z" fill="#F0F0F0"/>
<path d="M628.97 422.77H624.69V427.05H628.97V422.77Z" fill="#F0F0F0"/>
<path d="M628.97 429.94H624.69V434.22H628.97V429.94Z" fill="#F0F0F0"/>
<path d="M628.97 437.11H624.69V441.39H628.97V437.11Z" fill="#F0F0F0"/>
<path d="M628.97 444.29H624.69V448.57H628.97V444.29Z" fill="#F0F0F0"/>
<path d="M628.97 451.47H624.69V455.75H628.97V451.47Z" fill="#F0F0F0"/>
<path d="M628.97 458.65H624.69V462.93H628.97V458.65Z" fill="#F0F0F0"/>
<path d="M628.97 465.82H624.69V470.1H628.97V465.82Z" fill="#F0F0F0"/>
<path d="M628.97 473H624.69V477.28H628.97V473Z" fill="#F0F0F0"/>
<path d="M628.97 494.52H624.69V498.8H628.97V494.52Z" fill="#F0F0F0"/>
<path d="M628.97 501.69H624.69V505.97H628.97V501.69Z" fill="#F0F0F0"/>
<path d="M628.97 516.05H624.69V520.33H628.97V516.05Z" fill="#F0F0F0"/>
<path d="M628.97 523.23H624.69V527.51H628.97V523.23Z" fill="#F0F0F0"/>
<path d="M628.97 530.41H624.69V534.69H628.97V530.41Z" fill="#F0F0F0"/>
<path d="M628.97 537.58H624.69V541.86H628.97V537.58Z" fill="#F0F0F0"/>
<path d="M622.17 386.89H617.89V391.17H622.17V386.89Z" fill="#F0F0F0"/>
<path d="M622.17 394.06H617.89V398.34H622.17V394.06Z" fill="#F0F0F0"/>
<path d="M622.17 401.24H617.89V405.52H622.17V401.24Z" fill="#F0F0F0"/>
<path d="M622.17 408.42H617.89V412.7H622.17V408.42Z" fill="#F0F0F0"/>
<path d="M622.17 415.6H617.89V419.88H622.17V415.6Z" fill="#F0F0F0"/>
<path d="M622.17 422.77H617.89V427.05H622.17V422.77Z" fill="#F0F0F0"/>
<path d="M622.17 429.94H617.89V434.22H622.17V429.94Z" fill="#F0F0F0"/>
<path d="M622.17 437.11H617.89V441.39H622.17V437.11Z" fill="#F0F0F0"/>
<path d="M622.17 444.29H617.89V448.57H622.17V444.29Z" fill="#F0F0F0"/>
<path d="M622.17 451.47H617.89V455.75H622.17V451.47Z" fill="#F0F0F0"/>
<path d="M622.17 458.65H617.89V462.93H622.17V458.65Z" fill="#F0F0F0"/>
<path d="M622.17 465.82H617.89V470.1H622.17V465.82Z" fill="#F0F0F0"/>
<path d="M622.17 473H617.89V477.28H622.17V473Z" fill="#F0F0F0"/>
<path d="M622.17 480.18H617.89V484.46H622.17V480.18Z" fill="#F0F0F0"/>
<path d="M622.17 494.52H617.89V498.8H622.17V494.52Z" fill="#F0F0F0"/>
<path d="M622.17 508.87H617.89V513.15H622.17V508.87Z" fill="#F0F0F0"/>
<path d="M622.17 516.05H617.89V520.33H622.17V516.05Z" fill="#F0F0F0"/>
<path d="M622.17 523.23H617.89V527.51H622.17V523.23Z" fill="#F0F0F0"/>
<path d="M622.17 530.41H617.89V534.69H622.17V530.41Z" fill="#F0F0F0"/>
<path d="M622.17 537.58H617.89V541.86H622.17V537.58Z" fill="#F0F0F0"/>
<path d="M663.46 427.81H659.18V432.09H663.46V427.81Z" fill="#F0F0F0"/>
<path d="M663.46 434.98H659.18V439.26H663.46V434.98Z" fill="#F0F0F0"/>
<path d="M663.46 442.16H659.18V446.44H663.46V442.16Z" fill="#F0F0F0"/>
<path d="M663.46 449.32H659.18V453.6H663.46V449.32Z" fill="#F0F0F0"/>
<path d="M663.46 456.5H659.18V460.78H663.46V456.5Z" fill="#F0F0F0"/>
<path d="M663.46 463.68H659.18V467.96H663.46V463.68Z" fill="#F0F0F0"/>
<path d="M663.46 485.21H659.18V489.49H663.46V485.21Z" fill="#F0F0F0"/>
<path d="M663.46 492.39H659.18V496.67H663.46V492.39Z" fill="#F0F0F0"/>
<path d="M663.46 499.57H659.18V503.85H663.46V499.57Z" fill="#F0F0F0"/>
<path d="M663.46 506.74H659.18V511.02H663.46V506.74Z" fill="#F0F0F0"/>
<path d="M663.46 513.92H659.18V518.2H663.46V513.92Z" fill="#F0F0F0"/>
<path d="M663.46 521.08H659.18V525.36H663.46V521.08Z" fill="#F0F0F0"/>
<path d="M663.46 528.26H659.18V532.54H663.46V528.26Z" fill="#F0F0F0"/>
<path d="M656.66 427.81H652.38V432.09H656.66V427.81Z" fill="#F0F0F0"/>
<path d="M656.66 434.98H652.38V439.26H656.66V434.98Z" fill="#F0F0F0"/>
<path d="M656.66 442.16H652.38V446.44H656.66V442.16Z" fill="#F0F0F0"/>
<path d="M656.66 449.32H652.38V453.6H656.66V449.32Z" fill="#F0F0F0"/>
<path d="M656.66 456.5H652.38V460.78H656.66V456.5Z" fill="#F0F0F0"/>
<path d="M656.66 463.68H652.38V467.96H656.66V463.68Z" fill="#F0F0F0"/>
<path d="M656.66 485.21H652.38V489.49H656.66V485.21Z" fill="#F0F0F0"/>
<path d="M656.66 492.39H652.38V496.67H656.66V492.39Z" fill="#F0F0F0"/>
<path d="M656.66 499.57H652.38V503.85H656.66V499.57Z" fill="#F0F0F0"/>
<path d="M656.66 506.74H652.38V511.02H656.66V506.74Z" fill="#F0F0F0"/>
<path d="M656.66 513.92H652.38V518.2H656.66V513.92Z" fill="#F0F0F0"/>
<path d="M656.66 521.08H652.38V525.36H656.66V521.08Z" fill="#F0F0F0"/>
<path d="M656.66 535.44H652.38V539.72H656.66V535.44Z" fill="#F0F0F0"/>
<path d="M430.81 396.21H426.53V400.49H430.81V396.21Z" fill="#F0F0F0"/>
<path d="M430.81 403.37H426.53V407.65H430.81V403.37Z" fill="#F0F0F0"/>
<path d="M430.81 410.55H426.53V414.83H430.81V410.55Z" fill="#F0F0F0"/>
<path d="M430.81 417.73H426.53V422.01H430.81V417.73Z" fill="#F0F0F0"/>
<path d="M430.81 424.9H426.53V429.18H430.81V424.9Z" fill="#F0F0F0"/>
<path d="M430.81 432.08H426.53V436.36H430.81V432.08Z" fill="#F0F0F0"/>
<path d="M430.81 439.26H426.53V443.54H430.81V439.26Z" fill="#F0F0F0"/>
<path d="M430.81 446.44H426.53V450.72H430.81V446.44Z" fill="#F0F0F0"/>
<path d="M430.81 453.61H426.53V457.89H430.81V453.61Z" fill="#F0F0F0"/>
<path d="M430.81 460.79H426.53V465.07H430.81V460.79Z" fill="#F0F0F0"/>
<path d="M430.81 467.97H426.53V472.25H430.81V467.97Z" fill="#F0F0F0"/>
<path d="M430.81 482.31H426.53V486.59H430.81V482.31Z" fill="#F0F0F0"/>
<path d="M430.81 489.49H426.53V493.77H430.81V489.49Z" fill="#F0F0F0"/>
<path d="M430.81 496.66H426.53V500.94H430.81V496.66Z" fill="#F0F0F0"/>
<path d="M430.81 503.84H426.53V508.12H430.81V503.84Z" fill="#F0F0F0"/>
<path d="M430.81 511.02H426.53V515.3H430.81V511.02Z" fill="#F0F0F0"/>
<path d="M430.81 518.2H426.53V522.48H430.81V518.2Z" fill="#F0F0F0"/>
<path d="M430.81 525.37H426.53V529.65H430.81V525.37Z" fill="#F0F0F0"/>
<path d="M430.81 532.55H426.53V536.83H430.81V532.55Z" fill="#F0F0F0"/>
<path d="M424.03 396.21H419.75V400.49H424.03V396.21Z" fill="#F0F0F0"/>
<path d="M424.03 403.37H419.75V407.65H424.03V403.37Z" fill="#F0F0F0"/>
<path d="M424.03 410.55H419.75V414.83H424.03V410.55Z" fill="#F0F0F0"/>
<path d="M424.03 417.73H419.75V422.01H424.03V417.73Z" fill="#F0F0F0"/>
<path d="M424.03 424.9H419.75V429.18H424.03V424.9Z" fill="#F0F0F0"/>
<path d="M424.03 432.08H419.75V436.36H424.03V432.08Z" fill="#F0F0F0"/>
<path d="M424.03 439.26H419.75V443.54H424.03V439.26Z" fill="#F0F0F0"/>
<path d="M424.03 446.44H419.75V450.72H424.03V446.44Z" fill="#F0F0F0"/>
<path d="M424.03 453.61H419.75V457.89H424.03V453.61Z" fill="#F0F0F0"/>
<path d="M424.03 460.79H419.75V465.07H424.03V460.79Z" fill="#F0F0F0"/>
<path d="M424.03 467.97H419.75V472.25H424.03V467.97Z" fill="#F0F0F0"/>
<path d="M424.03 475.13H419.75V479.41H424.03V475.13Z" fill="#F0F0F0"/>
<path d="M424.03 482.31H419.75V486.59H424.03V482.31Z" fill="#F0F0F0"/>
<path d="M424.03 489.49H419.75V493.77H424.03V489.49Z" fill="#F0F0F0"/>
<path d="M424.03 496.66H419.75V500.94H424.03V496.66Z" fill="#F0F0F0"/>
<path d="M424.03 503.84H419.75V508.12H424.03V503.84Z" fill="#F0F0F0"/>
<path d="M424.03 511.02H419.75V515.3H424.03V511.02Z" fill="#F0F0F0"/>
<path d="M424.03 518.2H419.75V522.48H424.03V518.2Z" fill="#F0F0F0"/>
<path d="M424.03 525.37H419.75V529.65H424.03V525.37Z" fill="#F0F0F0"/>
<path d="M424.03 532.55H419.75V536.83H424.03V532.55Z" fill="#F0F0F0"/>
<path d="M464.31 424.15H460.03V428.43H464.31V424.15Z" fill="#F0F0F0"/>
<path d="M464.31 431.33H460.03V435.61H464.31V431.33Z" fill="#F0F0F0"/>
<path d="M464.31 438.5H460.03V442.78H464.31V438.5Z" fill="#F0F0F0"/>
<path d="M464.31 445.68H460.03V449.96H464.31V445.68Z" fill="#F0F0F0"/>
<path d="M464.31 452.86H460.03V457.14H464.31V452.86Z" fill="#F0F0F0"/>
<path d="M464.31 460.04H460.03V464.32H464.31V460.04Z" fill="#F0F0F0"/>
<path d="M464.31 467.21H460.03V471.49H464.31V467.21Z" fill="#F0F0F0"/>
<path d="M464.31 474.38H460.03V478.66H464.31V474.38Z" fill="#F0F0F0"/>
<path d="M464.31 481.55H460.03V485.83H464.31V481.55Z" fill="#F0F0F0"/>
<path d="M464.31 488.73H460.03V493.01H464.31V488.73Z" fill="#F0F0F0"/>
<path d="M457.51 424.15H453.23V428.43H457.51V424.15Z" fill="#F0F0F0"/>
<path d="M457.51 431.33H453.23V435.61H457.51V431.33Z" fill="#F0F0F0"/>
<path d="M457.51 438.5H453.23V442.78H457.51V438.5Z" fill="#F0F0F0"/>
<path d="M457.51 445.68H453.23V449.96H457.51V445.68Z" fill="#F0F0F0"/>
<path d="M457.51 452.86H453.23V457.14H457.51V452.86Z" fill="#F0F0F0"/>
<path d="M457.51 460.04H453.23V464.32H457.51V460.04Z" fill="#F0F0F0"/>
<path d="M457.51 467.21H453.23V471.49H457.51V467.21Z" fill="#F0F0F0"/>
<path d="M457.51 474.38H453.23V478.66H457.51V474.38Z" fill="#F0F0F0"/>
<path d="M457.51 481.55H453.23V485.83H457.51V481.55Z" fill="#F0F0F0"/>
<path d="M497.95 151.83H490.77V552.06H497.95V151.83Z" fill="#E0E0E0"/>
<path d="M633.1 151.83H625.92V552.06H633.1V151.83Z" fill="#E0E0E0"/>
<path d="M768.24 151.83H761.06V552.06H768.24V151.83Z" fill="#E0E0E0"/>
<path d="M257.42 513.05H301.69C303.698 513.05 305.623 513.848 307.043 515.267C308.462 516.687 309.26 518.612 309.26 520.62V520.62V606.18H249.87V520.69C249.859 519.696 250.045 518.709 250.417 517.786C250.788 516.864 251.338 516.023 252.035 515.314C252.731 514.604 253.561 514.039 254.477 513.65C255.392 513.262 256.375 513.058 257.37 513.05H257.42Z" fill="#F0F0F0"/>
<path d="M309.27 525.72H249.87V532.4H309.27V525.72Z" fill="#E6E6E6"/>
<path d="M283.65 595H298.45C299.529 595 300.565 595.429 301.328 596.192C302.091 596.955 302.52 597.991 302.52 599.07V606.28H279.52V599C279.52 597.921 279.949 596.885 280.712 596.122C281.475 595.359 282.511 594.93 283.59 594.93L283.65 595Z" fill="#E0E0E0"/>
<path d="M302.59 606.25H286.13C285.43 606.25 284.758 605.972 284.263 605.477C283.768 604.982 283.49 604.31 283.49 603.61V603.61C283.493 602.912 283.772 602.243 284.267 601.75C284.762 601.257 285.432 600.98 286.13 600.98H302.59C303.288 600.98 303.958 601.257 304.453 601.75C304.948 602.243 305.227 602.912 305.23 603.61V603.61C305.23 604.31 304.952 604.982 304.457 605.477C303.962 605.972 303.29 606.25 302.59 606.25V606.25Z" fill="#E6E6E6"/>
<path d="M566.325 133.046C588.062 127.915 601.525 106.135 596.394 84.3975C591.264 62.6604 569.483 49.198 547.746 54.3284C526.009 59.4588 512.547 81.2393 517.677 102.976C522.808 124.714 544.588 138.176 566.325 133.046Z" fill="#E0E0E0"/>
<path d="M557.03 128.03C576.023 128.03 591.42 112.633 591.42 93.64C591.42 74.6469 576.023 59.25 557.03 59.25C538.037 59.25 522.64 74.6469 522.64 93.64C522.64 112.633 538.037 128.03 557.03 128.03Z" fill="#F0F0F0"/>
<path d="M558.66 70.07V94.11L574.58 85.1" fill="#F0F0F0"/>
<path d="M558.66 95.78C558.353 95.7824 558.052 95.6993 557.79 95.54C557.534 95.3874 557.321 95.1706 557.174 94.9112C557.027 94.6517 556.95 94.3584 556.95 94.06V70C556.983 69.5678 557.178 69.164 557.496 68.8693C557.814 68.5747 558.231 68.4111 558.665 68.4111C559.098 68.4111 559.516 68.5747 559.834 68.8693C560.152 69.164 560.347 69.5678 560.38 70V91.16L573.74 83.6C574.138 83.3746 574.609 83.3164 575.05 83.4383C575.49 83.5602 575.865 83.8522 576.09 84.25C576.315 84.6478 576.374 85.1189 576.252 85.5596C576.13 86.0003 575.838 86.3746 575.44 86.6L559.5 95.6C559.238 95.7247 558.95 95.7864 558.66 95.78V95.78Z" fill="#E0E0E0"/>
<path d="M170 488.39C166.91 483.24 161.83 487.72 161.83 487.72C162.55 477.96 153.58 471.3 153.58 471.3C153.58 471.3 164.01 471.3 165.45 461.36C166.89 451.42 161.83 456.04 157.05 455.97C152.27 455.9 147.28 469.84 153.62 477.69C159.96 485.54 158.22 498.93 143.68 511.81C140.199 515.063 137.59 519.138 136.09 523.66C137.18 511.83 137.8 495.15 134.37 484.03C128.46 465.14 139.73 460.03 142.95 450.58C146.17 441.13 134.37 433.13 134.37 433.13C134.37 433.13 145.55 427.98 140.09 422.23C134.63 416.48 123.36 417.23 123.36 424.8C123.36 432.37 131 435.31 131 435.31C131 435.31 139.73 444.39 139.73 449.05C139.73 453.71 131 464 131 464C131 464 135 455.3 127 454.94C119 454.58 116.46 465.1 119.74 469.82C123.02 474.54 128.46 470.56 128.46 470.56C128.823 476.058 129.673 481.512 131 486.86C131.83 489.59 131.45 500.25 130.76 511.35C129.243 507.345 126.815 503.747 123.67 500.84C109.12 487.96 107.44 474.56 113.74 466.72C120.04 458.88 115 444.93 110.3 445C105.6 445.07 100.43 440.44 101.89 450.38C103.35 460.32 113.77 460.38 113.77 460.38C113.77 460.38 104.77 467.04 105.51 476.79C105.51 476.79 100.36 472.36 97.34 477.46C91.82 486.55 104.62 492.18 106.76 487.77C106.76 487.77 133.88 506.96 127.37 534.59L128.88 536.84C128.69 539.08 128.57 540.41 128.57 540.41L130.68 539.5L133.1 543C133.022 547.01 133.23 551.02 133.72 555L140.19 545.42C133.65 517.79 160.8 498.59 160.8 498.59C162.78 503.12 175.55 497.47 170 488.39Z" fill="#E0E0E0"/>
<path opacity="0.2" d="M170 488.39C166.91 483.24 161.83 487.72 161.83 487.72C162.55 477.96 153.58 471.3 153.58 471.3C153.58 471.3 164.01 471.3 165.45 461.36C166.89 451.42 161.83 456.04 157.05 455.97C152.27 455.9 147.28 469.84 153.62 477.69C159.96 485.54 158.22 498.93 143.68 511.81C140.199 515.063 137.59 519.138 136.09 523.66C137.18 511.83 137.8 495.15 134.37 484.03C128.46 465.14 139.73 460.03 142.95 450.58C146.17 441.13 134.37 433.13 134.37 433.13C134.37 433.13 145.55 427.98 140.09 422.23C134.63 416.48 123.36 417.23 123.36 424.8C123.36 432.37 131 435.31 131 435.31C131 435.31 139.73 444.39 139.73 449.05C139.73 453.71 131 464 131 464C131 464 135 455.3 127 454.94C119 454.58 116.46 465.1 119.74 469.82C123.02 474.54 128.46 470.56 128.46 470.56C128.823 476.058 129.673 481.512 131 486.86C131.83 489.59 131.45 500.25 130.76 511.35C129.243 507.345 126.815 503.747 123.67 500.84C109.12 487.96 107.44 474.56 113.74 466.72C120.04 458.88 115 444.93 110.3 445C105.6 445.07 100.43 440.44 101.89 450.38C103.35 460.32 113.77 460.38 113.77 460.38C113.77 460.38 104.77 467.04 105.51 476.79C105.51 476.79 100.36 472.36 97.34 477.46C91.82 486.55 104.62 492.18 106.76 487.77C106.76 487.77 133.88 506.96 127.37 534.59L128.88 536.84C128.69 539.08 128.57 540.41 128.57 540.41L130.68 539.5L133.1 543C133.022 547.01 133.23 551.02 133.72 555L140.19 545.42C133.65 517.79 160.8 498.59 160.8 498.59C162.78 503.12 175.55 497.47 170 488.39Z" fill="#E0E0E0"/>
<path d="M164.73 606.25H102.62L95.93 538.25H171.45L164.73 606.25Z" fill="#E6E6E6"/>
<path d="M174.75 530.75H92.6V545.76H174.75V530.75Z" fill="#F0F0F0"/>
<path d="M473.887 187.332L431.117 210.37C429.965 210.991 429.534 212.428 430.155 213.581L443.804 238.919C444.424 240.071 445.862 240.502 447.014 239.881L489.784 216.842C490.936 216.222 491.367 214.784 490.746 213.632L477.097 188.294C476.477 187.142 475.039 186.711 473.887 187.332Z" fill="#A500F2"/>
<path opacity="0.7" d="M473.856 187.124L431.087 210.163C429.934 210.783 429.503 212.221 430.124 213.373L443.773 238.711C444.393 239.863 445.831 240.294 446.983 239.673L489.753 216.635C490.905 216.014 491.336 214.577 490.715 213.424L477.067 188.087C476.446 186.934 475.008 186.503 473.856 187.124Z" fill="white"/>
<path opacity="0.2" d="M466.15 216.35C465.623 217.485 464.743 218.419 463.642 219.013C462.541 219.608 461.278 219.831 460.04 219.65L431.71 215.47L459.54 218.22C460.615 218.33 461.699 218.118 462.654 217.61C463.608 217.103 464.39 216.323 464.9 215.37L478.21 190.37L466.15 216.35Z" fill="black"/>
<path d="M498.16 188C493.64 177.11 453.16 150.34 456.06 147.92C458.96 145.5 466.24 150.65 466.24 150.65C466.24 150.65 462.17 145.95 466.24 145.65C470.31 145.35 479.15 150.8 479.15 150.8C479.15 150.8 474.86 145.89 479.15 145.65C483.44 145.41 491.6 153.34 491.6 153.34C491.6 153.34 485.93 145.18 494.54 151.07C503.15 156.96 510.22 176.21 510.68 185.76C511.14 195.31 502.68 198.89 498.16 188Z" fill="#A500F2"/>
<path opacity="0.4" d="M498.249 188.362C493.729 177.472 453.249 150.702 456.149 148.282C459.049 145.862 466.329 151.012 466.329 151.012C466.329 151.012 462.259 146.312 466.329 146.012C470.399 145.712 479.239 151.162 479.239 151.162C479.239 151.162 474.949 146.252 479.239 146.012C483.529 145.772 491.689 153.702 491.689 153.702C491.689 153.702 486.019 145.542 494.629 151.432C503.239 157.322 510.309 176.572 510.769 186.122C511.229 195.672 502.769 199.252 498.249 188.362Z" fill="white"/>
<path d="M480.05 189.2L476.77 192.88C476.716 192.939 476.649 192.984 476.574 193.012C476.5 193.04 476.419 193.05 476.34 193.04C476.213 193.023 476.099 192.956 476.02 192.855C475.942 192.755 475.906 192.627 475.92 192.5L476.4 188.14L470.72 188.58C470.637 188.589 470.553 188.575 470.479 188.537C470.404 188.5 470.342 188.442 470.3 188.37C470.269 188.32 470.249 188.265 470.24 188.207C470.23 188.149 470.233 188.09 470.247 188.034C470.261 187.977 470.286 187.923 470.321 187.876C470.356 187.829 470.4 187.79 470.45 187.76L475.86 184.33L480.05 189.2Z" fill="#A500F2"/>
<path opacity="0.3" d="M479.816 189.87L476.536 193.55C476.482 193.609 476.415 193.654 476.34 193.682C476.265 193.71 476.185 193.72 476.106 193.71C475.979 193.693 475.864 193.626 475.786 193.525C475.707 193.425 475.672 193.297 475.686 193.17L476.166 188.81L470.486 189.25C470.403 189.259 470.319 189.245 470.245 189.207C470.17 189.17 470.108 189.112 470.066 189.04C470.035 188.99 470.014 188.935 470.005 188.877C469.996 188.819 469.999 188.76 470.013 188.704C470.027 188.647 470.052 188.593 470.087 188.546C470.122 188.499 470.165 188.46 470.216 188.43L475.626 185L479.816 189.87Z" fill="white"/>
<path d="M535.53 179.55C539.46 193.29 531.18 208.93 515.61 208.74C500.04 208.55 493.18 193.62 484.61 191.57C476.04 189.52 473.74 185.15 475.78 180.94C477.82 176.73 483.32 176.74 494.57 180.38C504.05 183.43 516.01 183.67 520.91 180.94C529.79 176 533 161 533 161C544.31 157.67 551.8 162.82 551.8 162.82C544.885 166.721 539.237 172.529 535.53 179.55Z" fill="#A500F2"/>
<path opacity="0.5" d="M535.446 179.671C539.376 193.411 531.096 209.051 515.526 208.861C499.956 208.671 493.096 193.741 484.526 191.691C475.956 189.641 473.656 185.271 475.696 181.061C477.736 176.851 483.236 176.861 494.486 180.501C503.966 183.551 515.926 183.791 520.826 181.061C529.706 176.121 532.916 161.121 532.916 161.121C544.226 157.791 551.716 162.941 551.716 162.941C544.8 166.842 539.153 172.65 535.446 179.671Z" fill="white"/>
<path d="M480.82 183C481.01 183.022 481.186 183.113 481.314 183.256C481.441 183.399 481.512 183.583 481.512 183.775C481.512 183.967 481.441 184.151 481.314 184.294C481.186 184.437 481.01 184.528 480.82 184.55C480.63 184.528 480.454 184.437 480.326 184.294C480.199 184.151 480.128 183.967 480.128 183.775C480.128 183.583 480.199 183.399 480.326 183.256C480.454 183.113 480.63 183.022 480.82 183Z" fill="#2F2E41"/>
<path d="M521 183.83C532.73 182.83 570.66 152.59 572.12 156.15C573.58 159.71 566.39 164.99 566.39 164.99C566.39 164.99 572.16 162.59 571.13 166.54C570.1 170.49 562.2 177.2 562.2 177.2C562.2 177.2 568.26 174.66 567.14 178.81C566.02 182.96 556 188.28 556 188.28C556 188.28 565.48 185.36 557.24 191.71C549 198.06 528.49 198.85 519.24 196.35C509.99 193.85 509.25 184.77 521 183.83Z" fill="#A500F2"/>
<path opacity="0.4" d="M521.76 183.971C533.49 182.971 571.42 152.731 572.88 156.291C574.34 159.851 567.15 165.131 567.15 165.131C567.15 165.131 572.92 162.731 571.89 166.681C570.86 170.631 562.96 177.341 562.96 177.341C562.96 177.341 569.02 174.801 567.9 178.951C566.78 183.101 556.76 188.421 556.76 188.421C556.76 188.421 566.24 185.501 558 191.851C549.76 198.201 529.25 198.991 520 196.491C510.75 193.991 510.01 184.911 521.76 183.971Z" fill="white"/>
<path d="M579.67 154.69C579.52 154.689 579.375 154.636 579.261 154.54C579.146 154.443 579.069 154.309 579.043 154.162C579.016 154.014 579.043 153.862 579.117 153.732C579.192 153.602 579.31 153.502 579.45 153.45C581.06 152.784 582.706 152.21 584.38 151.73C584.463 151.698 584.552 151.684 584.641 151.688C584.73 151.691 584.817 151.714 584.898 151.753C584.978 151.792 585.049 151.847 585.107 151.915C585.165 151.982 585.208 152.061 585.234 152.146C585.26 152.232 585.269 152.321 585.259 152.41C585.249 152.498 585.221 152.584 585.176 152.661C585.132 152.738 585.072 152.806 585 152.859C584.929 152.912 584.847 152.95 584.76 152.97C583.113 153.47 581.487 154.003 579.88 154.57C579.81 154.58 579.74 154.58 579.67 154.57V154.69Z" fill="#0071F2"/>
<path d="M673.05 292.93C672.886 292.894 672.744 292.795 672.652 292.655C672.56 292.515 672.527 292.344 672.56 292.18C672.592 292.012 672.688 291.864 672.828 291.766C672.969 291.669 673.142 291.631 673.31 291.66C676.673 292.278 680.081 292.612 683.5 292.66C683.657 292.68 683.802 292.756 683.907 292.875C684.012 292.994 684.07 293.147 684.07 293.305C684.07 293.463 684.012 293.616 683.907 293.735C683.802 293.854 683.657 293.93 683.5 293.95C679.994 293.902 676.499 293.561 673.05 292.93V292.93ZM693.66 293.43C693.524 293.41 693.398 293.347 693.301 293.249C693.203 293.152 693.14 293.026 693.12 292.89C693.106 292.805 693.108 292.719 693.128 292.635C693.147 292.551 693.183 292.472 693.233 292.402C693.284 292.333 693.347 292.273 693.42 292.228C693.494 292.183 693.575 292.153 693.66 292.14C697.065 291.75 700.446 291.179 703.79 290.43C703.874 290.408 703.961 290.403 704.046 290.416C704.132 290.429 704.213 290.459 704.287 290.504C704.361 290.549 704.424 290.609 704.474 290.679C704.524 290.75 704.559 290.83 704.577 290.914C704.596 290.998 704.597 291.086 704.58 291.171C704.564 291.255 704.53 291.336 704.482 291.407C704.434 291.479 704.372 291.54 704.299 291.587C704.226 291.634 704.145 291.665 704.06 291.68C700.664 292.459 697.225 293.033 693.76 293.4V293.4L693.66 293.43ZM663.28 290C663.171 289.995 663.065 289.964 662.97 289.91C659.737 288.507 656.733 286.626 654.06 284.33C653.927 284.216 653.846 284.054 653.832 283.879C653.819 283.705 653.876 283.533 653.99 283.4C654.104 283.267 654.266 283.186 654.441 283.172C654.615 283.159 654.787 283.216 654.92 283.33C657.492 285.547 660.384 287.361 663.5 288.71V288.71C663.652 288.783 663.769 288.914 663.825 289.073C663.881 289.232 663.872 289.407 663.8 289.56C663.752 289.673 663.671 289.769 663.567 289.835C663.464 289.901 663.343 289.934 663.22 289.93L663.28 290ZM713.28 288.4C713.228 288.238 713.241 288.063 713.316 287.91C713.39 287.757 713.521 287.639 713.68 287.58C716.93 286.5 720.15 285.24 723.28 283.87C723.422 283.82 723.577 283.822 723.718 283.875C723.859 283.928 723.976 284.029 724.05 284.16C724.093 284.234 724.121 284.316 724.132 284.401C724.143 284.486 724.137 284.572 724.115 284.655C724.093 284.738 724.054 284.815 724.002 284.883C723.95 284.951 723.884 285.007 723.81 285.05C720.63 286.44 717.35 287.71 714.09 288.8H713.89C713.76 288.801 713.633 288.763 713.525 288.692C713.416 288.621 713.331 288.519 713.28 288.4V288.4ZM732.89 280.5C732.761 280.525 732.627 280.511 732.506 280.459C732.384 280.407 732.281 280.321 732.21 280.21C732.17 280.137 732.144 280.057 732.135 279.974C732.125 279.892 732.132 279.808 732.156 279.728C732.179 279.648 732.218 279.573 732.27 279.508C732.322 279.444 732.387 279.39 732.46 279.35C735.46 277.65 738.46 275.81 741.2 273.9C741.339 273.803 741.511 273.766 741.678 273.796C741.845 273.826 741.993 273.921 742.09 274.06C742.14 274.128 742.175 274.205 742.195 274.287C742.214 274.369 742.217 274.454 742.203 274.537C742.189 274.62 742.158 274.699 742.113 274.77C742.068 274.841 742.009 274.902 741.94 274.95C739.15 276.89 736.17 278.74 733.09 280.46C732.989 280.49 732.881 280.49 732.78 280.46L732.89 280.5ZM648 276.57C647.871 276.599 647.737 276.589 647.614 276.541C647.491 276.493 647.385 276.409 647.31 276.3C646.76 275.3 646.25 274.3 645.78 273.3C644.802 271.123 644.029 268.86 643.47 266.54C643.447 266.458 643.442 266.372 643.453 266.288C643.464 266.203 643.491 266.122 643.534 266.048C643.577 265.975 643.634 265.911 643.702 265.859C643.77 265.808 643.847 265.771 643.93 265.75C644.098 265.711 644.275 265.739 644.423 265.829C644.571 265.918 644.677 266.062 644.72 266.23C645.252 268.476 645.999 270.667 646.95 272.77C647.4 273.77 647.9 274.77 648.43 275.65C648.471 275.722 648.497 275.802 648.507 275.884C648.517 275.966 648.511 276.05 648.489 276.13C648.466 276.21 648.429 276.284 648.377 276.35C648.326 276.415 648.262 276.469 648.19 276.51C648.089 276.54 647.981 276.54 647.88 276.51L648 276.57ZM749.83 268.64C749.728 268.622 749.633 268.58 749.551 268.518C749.469 268.455 749.404 268.373 749.36 268.28C749.245 268.156 749.182 267.994 749.182 267.825C749.182 267.656 749.245 267.494 749.36 267.37C751.926 265.106 754.332 262.667 756.56 260.07C756.618 260.01 756.687 259.963 756.763 259.931C756.84 259.898 756.922 259.882 757.005 259.882C757.088 259.882 757.17 259.898 757.247 259.931C757.323 259.963 757.392 260.01 757.45 260.07C757.569 260.192 757.636 260.355 757.636 260.525C757.636 260.695 757.569 260.859 757.45 260.98C755.181 263.629 752.732 266.118 750.12 268.43C750.004 268.526 749.86 268.582 749.71 268.59L749.83 268.64ZM642.93 256.64C642.758 256.64 642.592 256.572 642.47 256.45C642.349 256.328 642.28 256.162 642.28 255.99C642.313 252.498 642.647 249.015 643.28 245.58C643.314 245.411 643.412 245.261 643.554 245.162C643.695 245.064 643.869 245.023 644.04 245.05C644.123 245.066 644.202 245.097 644.272 245.144C644.343 245.19 644.403 245.249 644.451 245.319C644.498 245.389 644.531 245.467 644.548 245.55C644.565 245.632 644.566 245.717 644.55 245.8C643.947 249.164 643.633 252.573 643.61 255.99V255.99C643.61 256.074 643.593 256.157 643.561 256.235C643.529 256.313 643.482 256.383 643.423 256.443C643.363 256.502 643.293 256.549 643.215 256.581C643.137 256.613 643.054 256.63 642.97 256.63L642.93 256.64ZM646.18 236.24C646.017 236.187 645.882 236.073 645.801 235.922C645.721 235.771 645.703 235.594 645.75 235.43C646.64 232.43 647.75 229.18 649.06 225.58C649.123 225.422 649.244 225.294 649.399 225.223C649.553 225.153 649.729 225.144 649.89 225.2C650.046 225.264 650.17 225.388 650.236 225.543C650.301 225.698 650.303 225.873 650.24 226.03C648.91 229.6 647.83 232.79 646.96 235.8C646.918 235.932 646.836 236.048 646.724 236.13C646.613 236.213 646.479 236.258 646.34 236.26L646.18 236.24ZM653.18 216.73C653.101 216.695 653.029 216.645 652.969 216.583C652.908 216.52 652.861 216.446 652.83 216.365C652.798 216.285 652.783 216.198 652.785 216.112C652.786 216.025 652.805 215.939 652.84 215.86C653.93 213.16 655.41 210.05 656.99 206.62V206.45C657.073 206.313 657.204 206.211 657.358 206.164C657.512 206.118 657.677 206.13 657.823 206.198C657.968 206.267 658.083 206.386 658.145 206.534C658.207 206.682 658.213 206.848 658.16 207V207.17C656.6 210.52 655.1 213.68 654 216.42C653.953 216.529 653.874 216.621 653.775 216.685C653.675 216.749 653.558 216.782 653.44 216.78L653.18 216.73ZM662 198C661.921 197.969 661.849 197.921 661.79 197.86V197.86C661.635 197.792 661.514 197.665 661.452 197.508C661.39 197.351 661.393 197.175 661.46 197.02C663 193.47 664.22 190.33 665.18 187.42C665.235 187.257 665.351 187.122 665.505 187.043C665.658 186.965 665.836 186.949 666 187C666.162 187.059 666.293 187.179 666.366 187.335C666.439 187.49 666.448 187.668 666.39 187.83C665.39 190.76 664.18 193.94 662.63 197.53C662.578 197.645 662.493 197.742 662.386 197.809C662.28 197.877 662.156 197.912 662.03 197.91L662 198ZM668.21 178.24C668.045 178.206 667.898 178.111 667.8 177.974C667.702 177.837 667.659 177.667 667.68 177.5C667.963 175.721 668.107 173.922 668.11 172.12C668.121 170.543 667.977 168.969 667.68 167.42C667.67 167.273 667.708 167.127 667.79 167.004C667.871 166.881 667.991 166.788 668.13 166.74C668.211 166.714 668.297 166.703 668.383 166.71C668.468 166.717 668.551 166.741 668.627 166.78C668.703 166.819 668.771 166.872 668.827 166.938C668.882 167.003 668.924 167.078 668.95 167.16C669.262 168.808 669.413 170.483 669.4 172.16C669.401 174.026 669.25 175.889 668.95 177.73C668.925 177.88 668.848 178.017 668.733 178.118C668.618 178.218 668.472 178.275 668.32 178.28L668.21 178.24ZM663.8 158.82C663.69 158.818 663.582 158.789 663.486 158.735C663.389 158.681 663.308 158.604 663.25 158.51C661.06 155.939 658.39 153.82 655.39 152.27C655.242 152.187 655.131 152.052 655.079 151.89C655.027 151.729 655.038 151.554 655.11 151.4C655.194 151.251 655.333 151.141 655.497 151.092C655.662 151.044 655.838 151.061 655.99 151.14C659.138 152.77 661.942 154.99 664.25 157.68C664.365 157.804 664.428 157.966 664.428 158.135C664.428 158.304 664.365 158.466 664.25 158.59C664.134 158.683 663.989 158.732 663.84 158.73L663.8 158.82ZM594.55 150.33C594.407 150.327 594.269 150.276 594.159 150.185C594.048 150.095 593.971 149.969 593.94 149.83C593.921 149.747 593.918 149.66 593.932 149.576C593.947 149.491 593.978 149.411 594.023 149.338C594.069 149.266 594.128 149.203 594.198 149.154C594.268 149.104 594.347 149.069 594.43 149.05C597.86 148.36 601.3 147.77 604.73 147.33C604.813 147.319 604.897 147.324 604.978 147.346C605.059 147.368 605.134 147.405 605.2 147.456C605.266 147.507 605.322 147.571 605.363 147.644C605.404 147.717 605.43 147.797 605.44 147.88V147.88C605.451 147.963 605.446 148.047 605.424 148.128C605.402 148.209 605.365 148.284 605.314 148.35C605.263 148.416 605.199 148.472 605.126 148.513C605.053 148.554 604.973 148.58 604.89 148.59C601.44 149.04 598.02 149.59 594.73 150.31H594.54L594.55 150.33ZM646 148.85C642.667 148.099 639.28 147.611 635.87 147.39C635.702 147.375 635.547 147.294 635.438 147.164C635.329 147.035 635.276 146.868 635.29 146.7C635.305 146.53 635.386 146.373 635.514 146.261C635.643 146.149 635.81 146.092 635.98 146.1C639.446 146.339 642.89 146.84 646.28 147.6C646.364 147.607 646.445 147.632 646.52 147.671C646.594 147.711 646.66 147.764 646.713 147.83C646.766 147.895 646.805 147.97 646.829 148.051C646.853 148.132 646.86 148.216 646.85 148.3C646.83 148.469 646.744 148.623 646.611 148.73C646.479 148.837 646.309 148.887 646.14 148.87L646 148.85ZM615.1 147.75C614.946 147.716 614.811 147.628 614.718 147.5C614.626 147.373 614.584 147.216 614.6 147.06C614.595 146.977 614.606 146.894 614.633 146.815C614.661 146.736 614.704 146.664 614.76 146.603C614.816 146.541 614.884 146.491 614.959 146.457C615.035 146.422 615.117 146.403 615.2 146.4C618.12 146.19 621.71 145.98 625.5 145.9C625.667 145.9 625.827 145.966 625.946 146.085C626.064 146.203 626.13 146.363 626.13 146.53C626.133 146.701 626.068 146.866 625.95 146.989C625.832 147.113 625.671 147.185 625.5 147.19C621.74 147.26 618.18 147.48 615.2 147.68L615.1 147.75Z" fill="#A500F2"/>
<path d="M763.06 252.74C762.925 252.742 762.793 252.704 762.68 252.63C762.612 252.585 762.554 252.526 762.509 252.458C762.464 252.39 762.433 252.314 762.418 252.234C762.403 252.154 762.405 252.071 762.422 251.992C762.44 251.912 762.473 251.837 762.52 251.77C763.352 250.304 764.1 248.791 764.76 247.24C764.832 247.086 764.96 246.965 765.118 246.902C765.276 246.839 765.452 246.838 765.61 246.9V246.9C765.765 246.968 765.886 247.095 765.948 247.252C766.01 247.409 766.007 247.585 765.94 247.74C765.261 249.342 764.487 250.902 763.62 252.41C763.565 252.512 763.482 252.597 763.382 252.655C763.281 252.714 763.166 252.743 763.05 252.74H763.06Z" fill="#0071F2"/>
<path d="M184.6 275.88L202.52 465.95H211.69L192.94 275.46L184.6 275.88Z" fill="#C2C4C6"/>
<path d="M210.03 275.88L222.11 463.45H229.62L219.19 275.46L210.03 275.88Z" fill="#C2C4C6"/>
<path d="M208.78 640.6H199.6V479.29H213.36L208.78 640.6Z" fill="#C2C4C6"/>
<path d="M260.88 639.76H251.71L247.96 479.29H261.71L260.88 639.76Z" fill="#C2C4C6"/>
<path d="M274.63 640.18H283.8L287.55 479.7H273.8L274.63 640.18Z" fill="#C2C4C6"/>
<path d="M344.24 640.18H353.41L353.83 480.96H340.07L344.24 640.18Z" fill="#C2C4C6"/>
<path d="M270.88 460.11H197.94V481.78H270.88V460.11Z" fill="#2E3135"/>
<path d="M356.33 460.11H270.88V481.78H356.33V460.11Z" fill="#3F4347"/>
<path d="M280.47 606V623.09H300.06V603.92L280.47 606Z" fill="#F9B499"/>
<path d="M279.63 638.24V621.84L300.11 621.58L323 633.66C323.631 633.994 324.158 634.494 324.527 635.105C324.895 635.716 325.09 636.416 325.09 637.13V637.13C325.087 638.164 324.678 639.155 323.95 639.888C323.221 640.622 322.234 641.039 321.2 641.05L282.85 641.4C282.43 641.408 282.013 641.332 281.622 641.177C281.232 641.022 280.876 640.79 280.577 640.496C280.277 640.202 280.039 639.851 279.876 639.463C279.714 639.076 279.63 638.66 279.63 638.24Z" fill="#A500F2"/>
<path d="M370.5 605.59V622.67H390.09V603.5L370.5 605.59Z" fill="#F9B499"/>
<path d="M369.67 637.82V621.42L390.15 621.16L413 633.24C413.631 633.573 414.16 634.073 414.528 634.684C414.896 635.296 415.091 635.996 415.09 636.71C415.09 637.744 414.681 638.737 413.952 639.471C413.224 640.206 412.234 640.622 411.2 640.63L372.85 640.99C372.433 640.991 372.02 640.91 371.634 640.752C371.248 640.593 370.897 640.36 370.602 640.065C370.307 639.771 370.072 639.421 369.912 639.035C369.752 638.65 369.67 638.237 369.67 637.82V637.82Z" fill="#A500F2"/>
<path d="M144.17 640.6H150.42L184.18 390.5H177.51L144.17 640.6Z" fill="#9EA0A3"/>
<path d="M265.46 640.6H259.21L225.45 390.5H232.12L265.46 640.6Z" fill="#9EA0A3"/>
<path d="M247.13 527.64H161.26V534.31H247.13V527.64Z" fill="#9EA0A3"/>
<path d="M471.37 640.6H477.62L511.39 390.5H504.72L471.37 640.6Z" fill="#9EA0A3"/>
<path d="M592.67 640.6H586.41L552.65 390.5H559.32L592.67 640.6Z" fill="#9EA0A3"/>
<path d="M574.33 527.64H488.46V534.31H574.33V527.64Z" fill="#9EA0A3"/>
<path d="M292.14 252.96L292.97 278.38L181.26 280.88L180.01 256.29L292.14 252.96Z" fill="#2E3135"/>
<path d="M588.5 382.17H163.76C160.076 382.17 157.09 385.156 157.09 388.84C157.09 392.524 160.076 395.51 163.76 395.51H588.5C592.184 395.51 595.17 392.524 595.17 388.84C595.17 385.156 592.184 382.17 588.5 382.17Z" fill="#E1E1E2"/>
<path d="M268.8 613.92H321.32L330.07 498.92C330.07 498.92 330.49 482.25 329.24 474.33C329.24 474.33 350.91 488.5 355.91 491L354.38 605.41C354.38 605.41 389.68 613.54 405.93 608.54L411.77 483.91C411.77 483.91 415.93 452.65 391.77 432.64L347.77 395.7L233.63 395.31C233.63 395.31 221.63 440.98 246.26 467.24L270.81 491.7C271.774 492.66 272.527 493.81 273.021 495.077C273.515 496.345 273.74 497.701 273.68 499.06L268.8 613.92Z" fill="#2F2E41"/>
<path opacity="0.2" d="M329.24 474.29C329.24 474.29 330.49 459.29 318.82 442.19L296.31 405.09C296.31 405.09 343.72 442.84 362.46 463.84C366.833 468.742 369.215 475.101 369.14 481.67L367.53 607.67C363.103 607.169 358.711 606.394 354.38 605.35L355.91 491L329.24 474.29Z" fill="black"/>
<path d="M299.43 258.88L255 269.21C255 269.21 233.33 269.63 226.66 292.97L216.86 344.45L240.41 361.33L259.74 382.14H383L376.3 300.89C376.3 300.89 370.04 278.26 326.9 268.53L299.43 258.88Z" fill="#A500F2"/>
<path opacity="0.2" d="M262.13 291.72L260.13 327.48L259.78 382.14H290.5C290.5 382.14 271.3 328.82 262.13 291.72Z" fill="black"/>
<path opacity="0.2" d="M348.38 382.14H367.67C367.67 382.14 355.5 340.07 355.08 306.72L348.38 382.14Z" fill="black"/>
<path d="M490.07 261.29H370.98C365.192 261.29 360.5 265.982 360.5 271.77V347.1C360.5 352.888 365.192 357.58 370.98 357.58H490.07C495.858 357.58 500.55 352.888 500.55 347.1V271.77C500.55 265.982 495.858 261.29 490.07 261.29Z" fill="#2F2E41"/>
<path opacity="0.2" d="M490.21 261.29H370.84C365.129 261.29 360.5 265.919 360.5 271.63V347.24C360.5 352.951 365.129 357.58 370.84 357.58H490.21C495.921 357.58 500.55 352.951 500.55 347.24V271.63C500.55 265.919 495.921 261.29 490.21 261.29Z" fill="black"/>
<path d="M438.19 242.27C438.147 242.704 437.956 243.11 437.65 243.42C437.346 243.731 436.95 243.935 436.52 244L423.44 245.87C423.44 245.87 427.61 246.7 427.61 249.2C427.61 249.2 428.44 250.87 425.94 252.54C426.421 253.382 426.638 254.348 426.563 255.315C426.488 256.281 426.125 257.202 425.52 257.96C425.52 257.96 426.59 260.64 425.02 261.38L395.51 261.29C395.51 261.29 405.51 242.53 421.77 240.45L435.77 240.1H436.21C436.486 240.102 436.758 240.161 437.01 240.273C437.263 240.385 437.489 240.548 437.675 240.752C437.861 240.956 438.002 241.196 438.091 241.457C438.18 241.718 438.213 241.995 438.19 242.27Z" fill="#F9B499"/>
<path d="M438.19 242.27C438.147 242.704 437.956 243.11 437.65 243.42C437.346 243.731 436.95 243.935 436.52 244L423.44 245.87C419.019 245.593 414.628 246.762 410.93 249.2C413.85 243.37 426.77 243.37 426.77 243.37C432.66 242.95 434.94 241.47 435.77 240.1H436.21C436.486 240.102 436.758 240.161 437.01 240.273C437.263 240.385 437.489 240.548 437.675 240.752C437.861 240.956 438.002 241.196 438.091 241.457C438.18 241.718 438.213 241.995 438.19 242.27Z" fill="#F7A48B"/>
<path d="M424.27 253.37L418 259.62C418 259.62 416.57 261.05 410 261.38" stroke="#F7A48B" stroke-miterlimit="10"/>
<path d="M326.74 253.37V270.67C326.74 274.264 325.312 277.71 322.771 280.251C320.23 282.792 316.784 284.22 313.19 284.22C309.596 284.22 306.15 282.792 303.609 280.251C301.068 277.71 299.64 274.264 299.64 270.67V244.2L304.04 242.35L326.74 253.37Z" fill="#F9B499"/>
<path d="M326.74 253.37V265.68C323.03 265.51 313.11 263.83 306.94 251.02L326.74 253.37Z" fill="#F7A48B"/>
<path d="M336.74 237.12C340.882 237.12 344.24 232.361 344.24 226.49C344.24 220.619 340.882 215.86 336.74 215.86C332.598 215.86 329.24 220.619 329.24 226.49C329.24 232.361 332.598 237.12 336.74 237.12Z" fill="#A500F2"/>
<path opacity="0.2" d="M335.91 235C338.903 235 341.33 231.562 341.33 227.32C341.33 223.078 338.903 219.64 335.91 219.64C332.917 219.64 330.49 223.078 330.49 227.32C330.49 231.562 332.917 235 335.91 235Z" fill="black"/>
<path d="M334.851 216.61C331.107 206.583 319.944 201.489 309.917 205.232C299.889 208.975 294.795 220.138 298.538 230.165L304.515 246.176C308.258 256.204 319.421 261.298 329.448 257.555C339.476 253.812 344.57 242.649 340.827 232.621L334.851 216.61Z" fill="#F9B499"/>
<path d="M290.37 238.6C290.37 238.6 279.79 225.72 287.37 207.72C288.004 206.165 289.1 204.842 290.51 203.93C291.422 203.295 292.5 202.941 293.611 202.913C294.722 202.884 295.817 203.182 296.76 203.77C296.76 203.77 296.76 203.54 296.85 203.16C297.122 201.621 297.699 200.151 298.546 198.837C299.393 197.523 300.493 196.391 301.783 195.508C303.073 194.624 304.525 194.006 306.056 193.691C307.587 193.375 309.166 193.368 310.7 193.67C316.082 194.638 321.583 194.749 327 194C327.909 193.879 328.808 193.692 329.69 193.44C332.82 192.58 343.1 190.79 343.8 204.56C343.8 204.56 346.25 211.81 335.23 217.15L333.56 213.61C332.671 212.072 331.54 210.687 330.21 209.51C330.21 209.51 318.8 219.15 304.62 216.65L303.02 221.65L290.37 238.6Z" fill="#2F2E41"/>
<path d="M299 235H305V247.09H299C297.409 247.09 295.883 246.458 294.757 245.333C293.632 244.207 293 242.681 293 241.09V241.09C292.988 240.295 293.134 239.505 293.431 238.766C293.727 238.028 294.167 237.356 294.725 236.789C295.284 236.222 295.949 235.772 296.683 235.465C297.417 235.158 298.204 235 299 235V235Z" fill="#F9B499"/>
<path d="M297.56 222.94C297.56 222.94 295.01 201.94 310.66 193.67L314.21 194.28C314.21 194.28 302.21 206.4 305.09 222.59L297.56 222.94Z" fill="#A500F2"/>
<path d="M301.73 245.04C306.336 245.04 310.07 239.721 310.07 233.16C310.07 226.599 306.336 221.28 301.73 221.28C297.124 221.28 293.39 226.599 293.39 233.16C293.39 239.721 297.124 245.04 301.73 245.04Z" fill="#3F4347"/>
<path d="M297.56 243.37C302.166 243.37 305.9 238.799 305.9 233.16C305.9 227.521 302.166 222.95 297.56 222.95C292.954 222.95 289.22 227.521 289.22 233.16C289.22 238.799 292.954 243.37 297.56 243.37Z" fill="#A500F2"/>
<path opacity="0.2" d="M296.93 240.03C300.039 240.03 302.56 236.766 302.56 232.74C302.56 228.714 300.039 225.45 296.93 225.45C293.821 225.45 291.3 228.714 291.3 232.74C291.3 236.766 293.821 240.03 296.93 240.03Z" fill="#A500F2"/>
<path d="M245.66 385.92C262.808 385.92 276.71 372.112 276.71 355.08C276.71 338.048 262.808 324.24 245.66 324.24C228.512 324.24 214.61 338.048 214.61 355.08C214.61 372.112 228.512 385.92 245.66 385.92Z" fill="#A500F2"/>
<path d="M300.06 359.24C300.06 359.24 228.37 398.43 220.06 361.74C220.06 361.74 212.97 333.4 244.23 333.4C244.23 333.4 267.99 332.98 302.59 340.07L338 347.38C341.225 348.051 344.119 349.818 346.19 352.38L361.68 371.38C361.841 371.579 361.957 371.81 362.019 372.058C362.082 372.306 362.09 372.565 362.042 372.816C361.995 373.067 361.893 373.305 361.744 373.513C361.595 373.721 361.403 373.894 361.18 374.02C360.857 374.206 360.483 374.284 360.112 374.243C359.742 374.201 359.394 374.043 359.12 373.79L341.74 358L344.85 366.29C345.167 367.11 345.292 367.992 345.214 368.868C345.136 369.743 344.857 370.589 344.4 371.34C343.4 372.9 341.53 374.26 337.99 373.43C337.99 373.43 335.49 375.93 331.32 373.43C331.32 373.43 327.81 375.53 319.17 375.88C318.948 375.915 318.72 375.875 318.524 375.764C318.327 375.654 318.174 375.481 318.088 375.273C318.003 375.064 317.99 374.833 318.052 374.617C318.114 374.4 318.247 374.211 318.43 374.08C320.03 372.56 322.55 370.67 325.07 370.92L322.57 365.09C322.57 365.09 305.89 367.58 300.06 359.24Z" fill="#F9B499"/>
<path d="M330.9 352.16C330.9 352.16 340.07 351.32 341.74 357.99" stroke="#F7A48B" stroke-miterlimit="10"/>
<path d="M327.15 353.83L332.23 356.26C333.603 356.913 334.781 357.915 335.644 359.166C336.508 360.418 337.027 361.875 337.15 363.39L337.99 373.39" stroke="#F7A48B" stroke-miterlimit="10"/>
<path d="M331.32 373.42L331 366.8C330.959 365.735 330.691 364.692 330.213 363.74C329.735 362.788 329.059 361.949 328.23 361.28L324.23 357.99" stroke="#F7A48B" stroke-miterlimit="10"/>
<path d="M494.18 261.29H381.87C374.21 261.29 368 267.5 368 275.16V343.71C368 351.37 374.21 357.58 381.87 357.58H494.18C501.84 357.58 508.05 351.37 508.05 343.71V275.16C508.05 267.5 501.84 261.29 494.18 261.29Z" fill="#2F2E41"/>
<path d="M464.5 270.88H464.49C462.535 270.88 460.95 272.465 460.95 274.42V288.6C460.95 290.555 462.535 292.14 464.49 292.14H464.5C466.455 292.14 468.04 290.555 468.04 288.6V274.42C468.04 272.465 466.455 270.88 464.5 270.88Z" fill="#A500F2"/>
<path d="M475.34 270.88H475.33C473.375 270.88 471.79 272.465 471.79 274.42V288.6C471.79 290.555 473.375 292.14 475.33 292.14H475.34C477.295 292.14 478.88 290.555 478.88 288.6V274.42C478.88 272.465 477.295 270.88 475.34 270.88Z" fill="#A500F2"/>
<path d="M486.59 270.88H486.58C484.625 270.88 483.04 272.465 483.04 274.42V288.6C483.04 290.555 484.625 292.14 486.58 292.14H486.59C488.545 292.14 490.13 290.555 490.13 288.6V274.42C490.13 272.465 488.545 270.88 486.59 270.88Z" fill="#A500F2"/>
<path d="M423 309.23L438.84 377.58H390.52C390.189 377.579 389.86 377.643 389.554 377.769C389.248 377.895 388.969 378.081 388.735 378.315C388.501 378.549 388.315 378.828 388.189 379.134C388.063 379.44 387.999 379.769 388 380.1V380.1C388 380.766 388.264 381.404 388.735 381.875C389.206 382.346 389.844 382.61 390.51 382.61H461C461.908 382.614 462.804 382.415 463.625 382.028C464.446 381.641 465.171 381.076 465.746 380.374C466.32 379.672 466.731 378.85 466.948 377.969C467.165 377.087 467.183 376.169 467 375.28L453.5 309.64L423 309.23Z" fill="#A500F2"/>
<path opacity="0.2" d="M423.02 309.23L422.68 357.42L434.06 357.76L423.02 309.23Z" fill="black"/>
<path d="M110.28 515.35C99.76 493.74 81.28 482.64 60.62 488.76C39.96 494.88 36.67 523.82 52.22 531.12C67.77 538.42 83.22 517.12 91.36 512.72C99.5 508.32 110.28 515.35 110.28 515.35Z" fill="#A500F2"/>
<path d="M120.46 573C120.46 570.39 120.29 567.78 120.2 565.17C120.02 559.97 119.833 554.773 119.64 549.58C119.3 540.06 118.27 530.73 114.34 521.95C110.848 514.009 105.033 507.311 97.66 502.74C94.9227 501.084 91.9721 499.809 88.89 498.95C86.1007 496.118 82.5453 494.161 78.66 493.32C73.8571 492.334 68.9177 492.206 64.07 492.94C63.88 492.94 63.9 493.25 64.07 493.21C68.6873 492.62 73.3761 492.96 77.86 494.21C79.7841 494.728 81.6479 495.449 83.42 496.36C84.5386 496.945 85.6117 497.614 86.63 498.36C82.4442 497.485 78.1185 497.525 73.95 498.48C72.4453 498.839 70.9735 499.324 69.55 499.93C68.4218 499.677 67.2653 499.573 66.11 499.62C64.5945 499.677 63.0893 499.894 61.62 500.27C58.6158 501.107 55.7443 502.363 53.09 504C52.93 504 53.09 504.31 53.24 504.22C55.8488 502.77 58.6452 501.686 61.55 501C62.9629 500.689 64.3967 500.481 65.84 500.38C66.6295 500.34 67.4205 500.34 68.21 500.38C62.3043 503.104 57.5562 507.835 54.81 513.73C54.81 513.89 54.97 514.04 55.05 513.87C56.6954 510.457 59.0846 507.455 62.042 505.086C64.9993 502.717 68.4498 501.041 72.14 500.18C72.61 500.08 73.08 500.02 73.54 499.93C73.43 500.62 73.36 501.32 73.32 502.01C73.17 503.06 72.99 504.11 72.79 505.15C72.3607 507.293 71.7996 509.407 71.11 511.48C70.3819 513.578 69.5167 515.626 68.52 517.61C67.5869 519.729 66.4052 521.73 65 523.57C64.9677 523.591 64.9445 523.623 64.9352 523.66C64.9259 523.697 64.9312 523.737 64.95 523.77C64.9784 523.793 65.0136 523.805 65.05 523.805C65.0864 523.805 65.1216 523.793 65.15 523.77C65.178 523.75 65.1991 523.722 65.21 523.69C66.46 521.69 67.91 519.94 69.05 517.91C70.1399 515.985 71.0794 513.979 71.86 511.91C72.6435 509.804 73.2489 507.637 73.67 505.43C73.9093 504.27 74.0895 503.098 74.21 501.92C74.3597 501.21 74.4101 500.483 74.36 499.76C76.7939 499.398 79.2641 499.351 81.71 499.62C80.79 504.78 79.81 510.16 76.91 514.62C76.82 514.76 77.08 514.91 77.17 514.75C78.5399 512.377 79.7493 509.915 80.79 507.38C81.7493 504.917 82.3585 502.332 82.6 499.7C86.8767 500.278 91.0058 501.659 94.77 503.77C101.858 507.9 107.52 514.091 111 521.52C114.635 529.498 116.673 538.109 117 546.87C117.69 557.87 117.83 569.04 118.94 580.05C118.94 580.77 120.15 581.05 120.28 580.19C120.548 577.803 120.608 575.397 120.46 573Z" fill="#2F2E41"/>
<path d="M96.15 500.88C95.449 500.061 94.6458 499.335 93.76 498.72C92.89 498.02 91.95 497.33 91.08 496.72C89.249 495.468 87.2209 494.531 85.08 493.95C84.9 493.95 84.82 494.19 85.08 494.22C87.2212 494.765 89.2243 495.753 90.96 497.12C91.8532 497.748 92.705 498.433 93.51 499.17C94.2395 499.921 95.0474 500.591 95.92 501.17C96.06 501.22 96.26 501 96.15 500.88Z" fill="#2F2E41"/>
<path d="M62.6 508.72C60.8582 510.718 59.2417 512.822 57.76 515.02C56.3191 517.267 55.1064 519.652 54.14 522.14C54.14 522.14 54.23 522.24 54.27 522.14C56.6784 517.435 59.5207 512.966 62.76 508.79C62.91 508.77 62.71 508.57 62.6 508.72Z" fill="#2F2E41"/>
<path d="M85.22 506.58C84.9939 507.924 84.5904 509.232 84.02 510.47C83.442 511.699 82.7665 512.879 82 514C82 514 82 514.15 82.11 514C83.9352 511.916 85.1011 509.337 85.46 506.59C85.51 506.47 85.23 506.4 85.22 506.58Z" fill="#2F2E41"/>
<path d="M119 515.87C119 515.87 133.89 497.16 162.7 503.79C190 510.11 202.54 560.18 175.01 566.18C147.48 572.18 152.19 525.88 142.14 517.95C134.76 512.19 124.13 513.43 119 515.87Z" fill="#A500F2"/>
<path d="M184.8 531.15C182.929 529.508 180.951 527.992 178.88 526.61C176.93 525.278 174.807 524.219 172.57 523.46C171.449 521.76 170.199 520.148 168.83 518.64C166.289 515.915 163.357 513.583 160.13 511.72H161C162.529 511.64 164.061 511.64 165.59 511.72C168.65 511.91 171.65 512.659 174.44 513.93C174.6 513.93 174.73 513.75 174.57 513.68C171.728 512.454 168.755 511.554 165.71 511C164.228 510.738 162.725 510.611 161.22 510.62C160.414 510.597 159.608 510.644 158.81 510.76H158.34C155.696 509.441 152.907 508.435 150.03 507.76C150.303 507.71 150.57 507.636 150.83 507.54C152.232 507.223 153.651 506.986 155.08 506.83C157.94 506.503 160.831 506.547 163.68 506.96C163.87 506.96 163.9 506.72 163.68 506.71C160.798 506.352 157.892 506.228 154.99 506.34C152.551 506.411 150.125 506.729 147.75 507.29C146.016 506.971 144.262 506.77 142.5 506.69C132.5 506.25 121.56 510 115.33 518.24C109.1 526.48 107.96 537.47 106.88 547.43C105.247 561.309 104.933 575.312 105.94 589.25C105.94 590.06 107.15 589.92 107.18 589.14C107.56 577.33 107.98 565.6 109.1 553.75C109.63 548.32 110.21 542.89 111.1 537.45C111.772 532.802 113.119 528.278 115.1 524.02C117.227 519.662 120.6 516.032 124.79 513.59C128.997 511.17 133.691 509.721 138.53 509.35C142.868 509 147.233 509.41 151.43 510.56C151.3 511.408 151.3 512.272 151.43 513.12C151.52 514.184 151.731 515.234 152.06 516.25C152.371 517.216 152.772 518.15 153.26 519.04C153.78 520.04 154.45 520.85 155.07 521.84C155.07 521.99 155.39 521.84 155.28 521.68C154.086 519.991 153.306 518.046 153 516C152.828 515.037 152.711 514.066 152.65 513.09V510.86C157.211 512.265 161.468 514.514 165.2 517.49C165.898 518.058 166.565 518.662 167.2 519.3C166.249 520.183 165.425 521.192 164.75 522.3C163.767 523.742 162.914 525.268 162.2 526.86C160.858 530.015 159.94 533.334 159.47 536.73C159.47 536.91 159.7 536.97 159.72 536.73C160.251 533.406 161.361 530.2 163 527.26C163.759 525.807 164.611 524.404 165.55 523.06C166.02 522.37 166.55 521.68 167.05 521.01C167.33 520.67 167.63 520.31 167.91 519.91C171.294 523.214 174.052 527.104 176.05 531.39V531.39C174.691 532.828 173.558 534.463 172.69 536.24C171.66 538.086 170.764 540.005 170.01 541.98C168.619 545.811 167.47 549.725 166.57 553.7C166.557 553.735 166.558 553.773 166.573 553.806C166.588 553.84 166.616 553.867 166.65 553.88C166.686 553.893 166.726 553.893 166.761 553.878C166.796 553.863 166.825 553.835 166.84 553.8C166.85 553.767 166.85 553.733 166.84 553.7C167.741 549.702 169.139 545.832 171 542.18C171.87 540.37 172.81 538.56 173.74 536.86C174.729 535.245 175.627 533.576 176.43 531.86C178.338 536.055 179.45 540.568 179.71 545.17C179.71 545.36 180 545.34 179.98 545.17C179.447 537.956 177.242 530.965 173.54 524.75C175.31 525.457 177.042 526.254 178.73 527.14C180.897 528.276 182.913 529.681 184.73 531.32C184.76 531.48 184.94 531.32 184.8 531.15Z" fill="#2F2E41"/>
<path d="M163.72 532.2C162.87 535.05 161.78 537.8 161 540.66C160.209 543.412 159.782 546.257 159.73 549.12H159.86C160.65 543.384 162.037 537.747 164 532.3C164.007 532.282 164.009 532.262 164.008 532.243C164.008 532.223 164.003 532.204 163.994 532.186C163.986 532.169 163.974 532.153 163.96 532.14C163.945 532.127 163.928 532.117 163.91 532.11C163.892 532.103 163.872 532.101 163.853 532.102C163.833 532.102 163.814 532.107 163.796 532.116C163.779 532.124 163.763 532.136 163.75 532.15C163.737 532.165 163.727 532.182 163.72 532.2V532.2Z" fill="#2F2E41"/>
<path d="M181.94 525.18C180.801 524.094 179.511 523.178 178.11 522.46C176.693 521.808 175.221 521.286 173.71 520.9C173.55 520.9 173.5 521.12 173.71 521.16C175.217 521.576 176.66 522.195 178 523C179.355 523.698 180.655 524.497 181.89 525.39C181.89 525.39 182 525.25 181.94 525.18Z" fill="#2F2E41"/>
<path d="M133.13 490.88C133.13 490.88 135.89 457.27 160.88 446.39C181.74 437.33 193.69 460.73 178.98 475.09C167 486.7 147.86 481.46 133.13 490.88Z" fill="#A500F2"/>
<path d="M174.31 452.89C170.505 454.431 166.792 456.191 163.19 458.16C160.198 459.881 157.319 461.792 154.57 463.88C154.99 463.03 155.35 462.07 155.77 461.31C156.412 460.008 157.119 458.74 157.89 457.51C159.405 454.962 161.229 452.611 163.32 450.51C163.45 450.41 163.32 450.21 163.12 450.33C161.018 452.423 159.082 454.677 157.33 457.07C156.47 458.294 155.676 459.562 154.95 460.87C154.218 462.082 153.653 463.387 153.27 464.75L153 464.95C148.637 468.432 144.637 472.345 141.06 476.63C141.084 476.288 141.158 475.951 141.28 475.63C141.75 473.98 142.28 472.37 142.8 470.74C143.872 467.292 145.388 463.997 147.31 460.94C147.319 460.925 147.325 460.908 147.327 460.891C147.329 460.874 147.328 460.856 147.323 460.839C147.318 460.823 147.31 460.807 147.3 460.793C147.289 460.78 147.275 460.768 147.26 460.76C147.245 460.751 147.228 460.745 147.211 460.743C147.194 460.741 147.176 460.742 147.159 460.747C147.143 460.752 147.127 460.76 147.113 460.77C147.1 460.781 147.088 460.795 147.08 460.81C145.11 463.872 143.359 467.07 141.84 470.38C141.118 472.001 140.513 473.672 140.03 475.38C139.67 476.48 139.399 477.607 139.22 478.75C138.13 480.12 137.04 481.52 136.05 482.96C125.31 498.23 119.93 516.7 118.65 535.19C118.258 540.698 118.162 546.222 118.36 551.74C118.401 557.313 118.889 562.875 119.82 568.37C119.834 568.408 119.856 568.443 119.884 568.473C119.912 568.502 119.946 568.526 119.983 568.543C120.02 568.56 120.06 568.569 120.101 568.57C120.141 568.571 120.182 568.564 120.22 568.55C120.275 568.528 120.323 568.491 120.358 568.443C120.394 568.396 120.415 568.339 120.42 568.28C120.31 563.42 119.8 558.57 119.71 553.79C119.617 548.918 119.774 544.045 120.18 539.19C120.968 529.493 122.792 519.909 125.62 510.6C128.512 501.068 132.78 492.009 138.29 483.71C139.34 483.49 140.39 483.2 141.43 482.95L145.17 481.95C147.581 481.33 149.925 480.476 152.17 479.4C152.33 479.4 152.17 479.07 152.02 479.16C149.824 480.373 147.436 481.202 144.96 481.61C143.01 481.99 140.96 482.24 139.02 482.69C140.833 480.023 142.77 477.477 144.83 475.05C149.579 475.487 154.367 475.132 159 474C161.458 473.398 163.876 472.643 166.24 471.74C168.74 470.74 171.11 469.53 173.58 468.5C173.76 468.5 173.58 468.15 173.47 468.24C168.978 470.697 164.074 472.31 159 473C154.545 473.711 150.042 474.079 145.53 474.1C147.34 472.1 149.15 470.1 151.09 468.22C157.612 461.653 165.451 456.541 174.09 453.22C174.57 453.09 174.47 452.82 174.31 452.89Z" fill="#2F2E41"/>
<path d="M154 453C152.872 454.413 151.849 455.907 150.94 457.47C150.002 459.117 149.26 460.869 148.73 462.69H148.83C149.67 461.04 150.37 459.33 151.21 457.69C152.044 456.07 153.05 454.545 154.21 453.14C154.28 453.05 154.08 452.85 154 453Z" fill="#2F2E41"/>
<path d="M177.17 464.19C175.546 465.084 173.829 465.798 172.05 466.32C170.34 466.892 168.597 467.359 166.83 467.72V467.86C168.681 467.671 170.505 467.278 172.27 466.69C173.979 466.03 175.648 465.272 177.27 464.42C177.52 464.31 177.37 464.1 177.17 464.19Z" fill="#2F2E41"/>
<path d="M113.79 484.83C113.65 486.3 110.01 472.63 88.89 460.51C69.61 449.51 46.79 420.85 65.51 402.74C80.71 388.26 120.71 420 113.79 484.83Z" fill="#A500F2"/>
<path d="M128.28 563.13C127.979 548.917 126.86 534.734 124.93 520.65C123.259 507.712 120.267 494.978 116 482.65C114.43 478.2 112.63 473.83 110.7 469.52C110.829 467.856 110.829 466.184 110.7 464.52C110.59 462.36 110.39 460.21 110.19 458.07C109.99 455.93 109.79 453.78 109.52 451.64C109.25 449.5 108.81 447.37 108.72 445.23C108.72 445.197 108.708 445.166 108.686 445.141C108.663 445.117 108.633 445.103 108.6 445.1C108.566 445.1 108.532 445.114 108.508 445.138C108.484 445.162 108.47 445.196 108.47 445.23V445.23C108.891 447.478 109.138 449.754 109.21 452.04C109.37 454.11 109.5 456.19 109.55 458.27C109.6 460.35 109.55 462.42 109.55 464.5V466.85C107.55 462.65 105.41 458.53 103.13 454.49C104.56 445.72 102.69 436.58 100.92 428.01C100.92 427.83 100.61 428.01 100.65 428.01C101.511 432.473 101.963 437.005 102 441.55C102 445.17 102 448.8 101.89 452.42C101.38 451.55 100.89 450.7 100.37 449.85C97.63 445.357 94.7033 440.98 91.59 436.72C91.8389 434.645 91.7715 432.545 91.39 430.49C91.0369 428.18 90.5223 425.898 89.85 423.66C89.1833 421.427 88.4033 419.23 87.51 417.07C86.61 414.84 85.38 412.74 84.51 410.51C84.4949 410.48 84.4688 410.457 84.4371 410.446C84.4054 410.435 84.3706 410.436 84.34 410.45C84.3242 410.457 84.3099 410.466 84.2979 410.478C84.2858 410.49 84.2763 410.505 84.2698 410.52C84.2633 410.536 84.26 410.553 84.26 410.57C84.26 410.587 84.2634 410.604 84.27 410.62C85.3411 412.728 86.1859 414.944 86.79 417.23C87.4884 419.389 88.0627 421.586 88.51 423.81C88.9633 426.03 89.3367 428.263 89.63 430.51C89.85 431.99 89.98 433.51 90.23 435.03C85.7097 428.95 80.7675 423.196 75.44 417.81C75.31 417.68 75.13 417.81 75.25 418.01C83.2978 427.087 90.4885 436.888 96.73 447.29L97.42 448.47C96.24 447.75 94.92 447.17 93.8 446.55L87.64 443.16C85.64 442.1 83.64 440.99 81.64 439.89C80.64 439.32 79.64 438.73 78.56 438.2C77.3002 437.634 76.0894 436.966 74.94 436.2C74.79 436.09 74.61 436.33 74.79 436.42C76.79 437.54 78.61 439.21 80.59 440.42C82.57 441.63 84.59 442.9 86.59 444.04C90.34 446.14 94.41 447.66 98.12 449.81C100.68 454.29 103.05 458.87 105.22 463.59C102.98 462.163 100.693 460.793 98.36 459.48C96.87 458.65 95.36 457.82 93.85 457.02C92.3404 456.322 90.9118 455.46 89.59 454.45C89.45 454.34 89.27 454.45 89.39 454.65C91.8579 456.86 94.5884 458.757 97.52 460.3C100.24 461.89 102.96 463.41 105.8 464.81C108.129 469.762 110.198 474.832 112 480C120.89 505.17 124.15 531.92 125.71 558.46C126.18 566.38 126.42 574.29 126.52 582.22C126.62 590.15 126.2 598.03 126.22 605.95C126.23 605.997 126.256 606.038 126.294 606.068C126.331 606.098 126.377 606.114 126.425 606.114C126.473 606.114 126.519 606.098 126.556 606.068C126.594 606.038 126.62 605.997 126.63 605.95C127.63 598.95 127.76 591.78 128.06 584.72C128.36 577.66 128.41 570.32 128.28 563.13Z" fill="#2F2E41"/>
<path d="M89.85 449.12C85.9933 447.418 82.246 445.477 78.63 443.31C74.9675 441.25 71.4191 438.993 68 436.55C68 436.55 67.87 436.55 68 436.64C71.2315 439.299 74.6503 441.722 78.23 443.89C81.9769 445.971 85.8474 447.821 89.82 449.43C89.89 449.43 90 449.19 89.85 449.12Z" fill="#2F2E41"/>
<path d="M96 420.65C95.68 419.42 95.3 418.23 94.88 417.03C94.8948 417.013 94.9029 416.992 94.9029 416.97C94.9029 416.948 94.8948 416.927 94.88 416.91C94.61 416.22 94.34 415.55 94.05 414.91C94.06 414.824 94.06 414.736 94.05 414.65L93.88 414.27L94.1 414.96C94.126 415.096 94.1628 415.23 94.21 415.36C95.6064 420.056 96.6526 424.849 97.34 429.7C97.34 429.734 97.3537 429.768 97.3781 429.792C97.4025 429.816 97.4355 429.83 97.47 429.83C97.4866 429.83 97.5031 429.827 97.5184 429.82C97.5336 429.813 97.5473 429.804 97.5586 429.791C97.5699 429.779 97.5785 429.765 97.5839 429.749C97.5893 429.733 97.5914 429.717 97.59 429.7C97.348 426.64 96.8156 423.609 96 420.65V420.65Z" fill="#2F2E41"/>
<path d="M150.57 568.24L149.07 586.12L144.45 640.62H95.01L90.4 586.12L88.89 568.24H150.57Z" fill="#2F2E41"/>
<path opacity="0.2" d="M150.57 568.24L149.07 586.12H90.4L88.89 568.24H150.57Z" fill="black"/>
<path d="M155.42 561.07H84.04V578.22H155.42V561.07Z" fill="#2F2E41"/>
<path d="M269.22 164.49H234.31C231.51 164.49 229.24 166.76 229.24 169.56V184.49C229.24 187.29 231.51 189.56 234.31 189.56H269.22C272.02 189.56 274.29 187.29 274.29 184.49V169.56C274.29 166.76 272.02 164.49 269.22 164.49Z" fill="#A500F2"/>
<path d="M255.77 187.66L272.74 201L262.22 186.7L255.77 187.66Z" fill="#0071F2"/>
<path d="M261.83 177C261.83 176.807 261.868 176.616 261.942 176.437C262.016 176.259 262.124 176.097 262.261 175.961C262.397 175.824 262.559 175.716 262.737 175.642C262.916 175.568 263.107 175.53 263.3 175.53V175.53C263.593 175.532 263.878 175.621 264.121 175.785C264.363 175.949 264.551 176.182 264.661 176.453C264.771 176.724 264.799 177.022 264.74 177.309C264.68 177.595 264.538 177.858 264.329 178.064C264.121 178.269 263.856 178.408 263.569 178.463C263.281 178.519 262.984 178.487 262.714 178.373C262.445 178.26 262.215 178.068 262.054 177.824C261.893 177.579 261.808 177.293 261.81 177H261.83Z" fill="white"/>
<path d="M254.14 177C254.14 176.61 254.295 176.236 254.571 175.961C254.846 175.685 255.22 175.53 255.61 175.53V175.53C255.903 175.532 256.188 175.621 256.431 175.785C256.673 175.949 256.861 176.182 256.971 176.453C257.081 176.724 257.109 177.022 257.05 177.309C256.99 177.595 256.848 177.858 256.639 178.064C256.431 178.269 256.166 178.408 255.879 178.463C255.591 178.519 255.294 178.487 255.024 178.373C254.755 178.26 254.525 178.068 254.364 177.824C254.203 177.579 254.118 177.293 254.12 177H254.14Z" fill="white"/>
<path d="M246.45 177C246.45 176.61 246.605 176.236 246.881 175.961C247.156 175.685 247.53 175.53 247.92 175.53V175.53C248.213 175.532 248.498 175.621 248.741 175.785C248.983 175.949 249.171 176.182 249.281 176.453C249.391 176.724 249.419 177.022 249.36 177.309C249.301 177.595 249.158 177.858 248.949 178.064C248.741 178.269 248.476 178.408 248.189 178.463C247.901 178.519 247.604 178.487 247.334 178.373C247.065 178.26 246.835 178.068 246.674 177.824C246.513 177.579 246.428 177.293 246.43 177H246.45Z" fill="white"/>
<path d="M238.76 177C238.76 176.61 238.915 176.236 239.191 175.961C239.466 175.685 239.84 175.53 240.23 175.53V175.53C240.523 175.532 240.808 175.621 241.051 175.785C241.293 175.949 241.481 176.182 241.591 176.453C241.701 176.724 241.729 177.022 241.67 177.309C241.61 177.595 241.468 177.858 241.259 178.064C241.051 178.269 240.786 178.408 240.499 178.463C240.211 178.519 239.914 178.487 239.644 178.373C239.375 178.26 239.145 178.068 238.984 177.824C238.823 177.579 238.738 177.293 238.74 177H238.76Z" fill="white"/>
</svg>
